<svg version="1.1" viewBox="0.0 0.0 600.0 371.0" fill="none" stroke="none" stroke-linecap="square" stroke-miterlimit="10" width="600" height="371" xmlns:xlink="http://www.w3.org/1999/xlink" xmlns="http://www.w3.org/2000/svg"><path fill="#ffffff" d="M0 0L600.0 0L600.0 371.0L0 371.0L0 0Z" fill-rule="nonzero"/><path stroke="#cccccc" stroke-width="1.0" stroke-linecap="butt" d="M82.5 51.5L82.5 332.5" fill-rule="nonzero"/><path stroke="#cccccc" stroke-width="1.0" stroke-linecap="butt" d="M207.5 51.5L207.5 332.5" fill-rule="nonzero"/><path stroke="#cccccc" stroke-width="1.0" stroke-linecap="butt" d="M332.5 51.5L332.5 332.5" fill-rule="nonzero"/><path stroke="#cccccc" stroke-width="1.0" stroke-linecap="butt" d="M456.5 51.5L456.5 332.5" fill-rule="nonzero"/><path stroke="#cccccc" stroke-width="1.0" stroke-linecap="butt" d="M581.5 51.5L581.5 332.5" fill-rule="nonzero"/><path stroke="#333333" stroke-width="1.0" stroke-linecap="butt" d="M45.5 332.5L581.5 332.5" fill-rule="nonzero"/><path stroke="#cccccc" stroke-width="1.0" stroke-linecap="butt" d="M45.5 262.5L581.5 262.5" fill-rule="nonzero"/><path stroke="#cccccc" stroke-width="1.0" stroke-linecap="butt" d="M45.5 192.5L581.5 192.5" fill-rule="nonzero"/><path stroke="#cccccc" stroke-width="1.0" stroke-linecap="butt" d="M45.5 122.5L581.5 122.5" fill-rule="nonzero"/><path stroke="#cccccc" stroke-width="1.0" stroke-linecap="butt" d="M45.5 51.5L581.5 51.5" fill-rule="nonzero"/><clipPath id="id_0"><path d="M45.55 51.916668L581.45 51.916668L581.45 332.45L45.55 332.45L45.55 51.916668Z" clip-rule="nonzero"/></clipPath><path fill="#4285f4" fill-opacity="0.3019608" clip-path="url(#id_0)" d="M45.55 326.83932L70.47558 315.618L76.70698 312.81265L89.16977 304.39667L95.40116 321.22867L101.63256 310.00732L107.86395 290.37L114.09535 287.56467L120.326744 65.94334L126.558136 180.962L132.78954 183.76733L139.02094 189.378L145.25232 253.90067L157.71512 279.14868L170.1779 262.31668L176.4093 267.92734L182.6407 267.92734L188.87209 293.17532L201.33488 284.75934L213.79767 231.458L220.02907 265.122L226.26047 287.56467L232.49187 259.51132L238.72325 248.29L244.95465 245.48466L251.18605 189.378L257.41745 225.84734L263.64883 206.21L269.88022 180.962L282.34302 211.82066L288.57443 203.40466L294.80582 197.794L301.0372 194.98866L307.26862 223.042L313.5 189.378L319.73138 206.21L325.9628 217.43134L332.19418 141.68733L338.42557 186.57266L344.65698 192.18333L350.88837 200.59933L357.11978 206.21L363.35117 178.15666L369.58255 178.15666L375.81396 175.35133L382.04535 164.13L388.27673 169.74066L394.50815 141.68733L400.73953 180.962L406.97092 152.90866L413.20233 186.57266L419.43372 211.82066L425.66513 175.35133L431.8965 189.378L438.1279 180.962L444.3593 169.74066L450.5907 180.962L456.82208 214.626L463.0535 186.57266L469.28488 197.794L475.51627 192.18333L481.74768 206.21L487.97906 138.882L494.21048 164.13L500.44186 161.32466L506.67325 175.35133L512.90466 166.93533L525.36743 138.882L531.5988 150.10333L537.83026 178.15666L544.06165 155.714L550.293 161.32466L556.5244 136.07666L562.7558 122.05L568.9872 99.60733L575.2186 136.07666L581.45 324.034L581.45 332.45L575.2186 332.45L568.9872 332.45L562.7558 332.45L556.5244 332.45L550.293 332.45L544.06165 332.45L537.83026 332.45L531.5988 332.45L525.36743 332.45L512.90466 332.45L506.67325 332.45L500.44186 332.45L494.21048 332.45L487.97906 332.45L481.74768 332.45L475.51627 332.45L469.28488 332.45L463.0535 332.45L456.82208 332.45L450.5907 332.45L444.3593 332.45L438.1279 332.45L431.8965 332.45L425.66513 332.45L419.43372 332.45L413.20233 332.45L406.97092 332.45L400.73953 332.45L394.50815 332.45L388.27673 332.45L382.04535 332.45L375.81396 332.45L369.58255 332.45L363.35117 332.45L357.11978 332.45L350.88837 332.45L344.65698 332.45L338.42557 332.45L332.19418 332.45L325.9628 332.45L319.73138 332.45L313.5 332.45L307.26862 332.45L301.0372 332.45L294.80582 332.45L288.57443 332.45L282.34302 332.45L269.88022 332.45L263.64883 332.45L257.41745 332.45L251.18605 332.45L244.95465 332.45L238.72325 332.45L232.49187 332.45L226.26047 332.45L220.02907 332.45L213.79767 332.45L201.33488 332.45L188.87209 332.45L182.6407 332.45L176.4093 332.45L170.1779 332.45L157.71512 332.45L145.25232 332.45L139.02094 332.45L132.78954 332.45L126.558136 332.45L120.326744 332.45L114.09535 332.45L107.86395 332.45L101.63256 332.45L95.40116 332.45L89.16977 332.45L76.70698 332.45L70.47558 332.45L45.55 332.45Z" fill-rule="nonzero"/><path fill="#ea4335" fill-opacity="0.3019608" clip-path="url(#id_0)" d="M45.55 332.45L70.47558 332.45L76.70698 332.45L89.16977 332.45L95.40116 332.45L101.63256 332.45L107.86395 332.45L114.09535 329.64465L120.326744 326.83932L126.558136 332.45L132.78954 332.45L139.02094 326.83932L145.25232 332.45L157.71512 332.45L170.1779 332.45L176.4093 329.64465L182.6407 332.45L188.87209 332.45L201.33488 332.45L213.79767 332.45L220.02907 332.45L226.26047 332.45L232.49187 332.45L238.72325 332.45L244.95465 332.45L251.18605 332.45L257.41745 332.45L263.64883 332.45L269.88022 329.64465L282.34302 332.45L288.57443 324.034L294.80582 329.64465L301.0372 329.64465L307.26862 321.22867L313.5 329.64465L319.73138 326.83932L325.9628 318.42334L332.19418 324.034L338.42557 310.00732L344.65698 326.83932L350.88837 310.00732L357.11978 315.618L363.35117 298.786L369.58255 312.81265L375.81396 321.22867L382.04535 304.39667L388.27673 326.83932L394.50815 290.37L400.73953 318.42334L406.97092 298.786L413.20233 293.17532L419.43372 295.98065L425.66513 290.37L431.8965 279.14868L438.1279 251.09534L444.3593 284.75934L450.5907 245.48466L456.82208 290.37L463.0535 245.48466L469.28488 270.73267L475.51627 251.09534L481.74768 273.538L487.97906 239.874L494.21048 259.51132L500.44186 256.706L506.67325 262.31668L512.90466 276.34332L525.36743 273.538L531.5988 242.67934L537.83026 262.31668L544.06165 265.122L550.293 287.56467L556.5244 270.73267L562.7558 281.954L568.9872 293.17532L575.2186 273.538L581.45 332.45L581.45 332.45L575.2186 332.45L568.9872 332.45L562.7558 332.45L556.5244 332.45L550.293 332.45L544.06165 332.45L537.83026 332.45L531.5988 332.45L525.36743 332.45L512.90466 332.45L506.67325 332.45L500.44186 332.45L494.21048 332.45L487.97906 332.45L481.74768 332.45L475.51627 332.45L469.28488 332.45L463.0535 332.45L456.82208 332.45L450.5907 332.45L444.3593 332.45L438.1279 332.45L431.8965 332.45L425.66513 332.45L419.43372 332.45L413.20233 332.45L406.97092 332.45L400.73953 332.45L394.50815 332.45L388.27673 332.45L382.04535 332.45L375.81396 332.45L369.58255 332.45L363.35117 332.45L357.11978 332.45L350.88837 332.45L344.65698 332.45L338.42557 332.45L332.19418 332.45L325.9628 332.45L319.73138 332.45L313.5 332.45L307.26862 332.45L301.0372 332.45L294.80582 332.45L288.57443 332.45L282.34302 332.45L269.88022 332.45L263.64883 332.45L257.41745 332.45L251.18605 332.45L244.95465 332.45L238.72325 332.45L232.49187 332.45L226.26047 332.45L220.02907 332.45L213.79767 332.45L201.33488 332.45L188.87209 332.45L182.6407 332.45L176.4093 332.45L170.1779 332.45L157.71512 332.45L145.25232 332.45L139.02094 332.45L132.78954 332.45L126.558136 332.45L120.326744 332.45L114.09535 332.45L107.86395 332.45L101.63256 332.45L95.40116 332.45L89.16977 332.45L76.70698 332.45L70.47558 332.45L45.55 332.45Z" fill-rule="nonzero"/><path stroke="#4285f4" stroke-width="2.0" stroke-linecap="butt" clip-path="url(#id_0)" d="M45.55 326.83932L70.47558 315.618L76.70698 312.81265L89.16977 304.39667L95.40116 321.22867L101.63256 310.00732L107.86395 290.37L114.09535 287.56467L120.326744 65.94334L126.558136 180.962L132.78954 183.76733L139.02094 189.378L145.25232 253.90067L157.71512 279.14868L170.1779 262.31668L176.4093 267.92734L182.6407 267.92734L188.87209 293.17532L201.33488 284.75934L213.79767 231.458L220.02907 265.122L226.26047 287.56467L232.49187 259.51132L238.72325 248.29L244.95465 245.48466L251.18605 189.378L257.41745 225.84734L263.64883 206.21L269.88022 180.962L282.34302 211.82066L288.57443 203.40466L294.80582 197.794L301.0372 194.98866L307.26862 223.042L313.5 189.378L319.73138 206.21L325.9628 217.43134L332.19418 141.68733L338.42557 186.57266L344.65698 192.18333L350.88837 200.59933L357.11978 206.21L363.35117 178.15666L369.58255 178.15666L375.81396 175.35133L382.04535 164.13L388.27673 169.74066L394.50815 141.68733L400.73953 180.962L406.97092 152.90866L413.20233 186.57266L419.43372 211.82066L425.66513 175.35133L431.8965 189.378L438.1279 180.962L444.3593 169.74066L450.5907 180.962L456.82208 214.626L463.0535 186.57266L469.28488 197.794L475.51627 192.18333L481.74768 206.21L487.97906 138.882L494.21048 164.13L500.44186 161.32466L506.67325 175.35133L512.90466 166.93533L525.36743 138.882L531.5988 150.10333L537.83026 178.15666L544.06165 155.714L550.293 161.32466L556.5244 136.07666L562.7558 122.05L568.9872 99.60733L575.2186 136.07666L581.45 324.034" fill-rule="nonzero"/><path stroke="#ea4335" stroke-width="2.0" stroke-linecap="butt" clip-path="url(#id_0)" d="M45.55 332.45L70.47558 332.45L76.70698 332.45L89.16977 332.45L95.40116 332.45L101.63256 332.45L107.86395 332.45L114.09535 329.64465L120.326744 326.83932L126.558136 332.45L132.78954 332.45L139.02094 326.83932L145.25232 332.45L157.71512 332.45L170.1779 332.45L176.4093 329.64465L182.6407 332.45L188.87209 332.45L201.33488 332.45L213.79767 332.45L220.02907 332.45L226.26047 332.45L232.49187 332.45L238.72325 332.45L244.95465 332.45L251.18605 332.45L257.41745 332.45L263.64883 332.45L269.88022 329.64465L282.34302 332.45L288.57443 324.034L294.80582 329.64465L301.0372 329.64465L307.26862 321.22867L313.5 329.64465L319.73138 326.83932L325.9628 318.42334L332.19418 324.034L338.42557 310.00732L344.65698 326.83932L350.88837 310.00732L357.11978 315.618L363.35117 298.786L369.58255 312.81265L375.81396 321.22867L382.04535 304.39667L388.27673 326.83932L394.50815 290.37L400.73953 318.42334L406.97092 298.786L413.20233 293.17532L419.43372 295.98065L425.66513 290.37L431.8965 279.14868L438.1279 251.09534L444.3593 284.75934L450.5907 245.48466L456.82208 290.37L463.0535 245.48466L469.28488 270.73267L475.51627 251.09534L481.74768 273.538L487.97906 239.874L494.21048 259.51132L500.44186 256.706L506.67325 262.31668L512.90466 276.34332L525.36743 273.538L531.5988 242.67934L537.83026 262.31668L544.06165 265.122L550.293 287.56467L556.5244 270.73267L562.7558 281.954L568.9872 293.17532L575.2186 273.538L581.45 332.45" fill-rule="nonzero"/><path fill="#000000" fill-opacity="0.0" clip-path="url(#id_0)" d="M48.55 326.83932C48.55 328.4962 47.206856 329.83932 45.55 329.83932C43.893147 329.83932 42.55 328.4962 42.55 326.83932C42.55 325.18246 43.893147 323.83932 45.55 323.83932C47.206856 323.83932 48.55 325.18246 48.55 326.83932Z" fill-rule="nonzero"/><path fill="#000000" fill-opacity="0.0" clip-path="url(#id_0)" d="M73.47558 315.618C73.47558 317.27484 72.13244 318.618 70.47558 318.618C68.818726 318.618 67.47558 317.27484 67.47558 315.618C67.47558 313.96115 68.818726 312.618 70.47558 312.618C72.13244 312.618 73.47558 313.96115 73.47558 315.618Z" fill-rule="nonzero"/><path fill="#000000" fill-opacity="0.0" clip-path="url(#id_0)" d="M79.70698 312.81265C79.70698 314.4695 78.36383 315.81265 76.70698 315.81265C75.050125 315.81265 73.70698 314.4695 73.70698 312.81265C73.70698 311.15582 75.050125 309.81265 76.70698 309.81265C78.36383 309.81265 79.70698 311.15582 79.70698 312.81265Z" fill-rule="nonzero"/><path fill="#000000" fill-opacity="0.0" clip-path="url(#id_0)" d="M92.16977 304.39667C92.16977 306.05353 90.82662 307.39667 89.16977 307.39667C87.51292 307.39667 86.16977 306.05353 86.16977 304.39667C86.16977 302.7398 87.51292 301.39667 89.16977 301.39667C90.82662 301.39667 92.16977 302.7398 92.16977 304.39667Z" fill-rule="nonzero"/><path fill="#000000" fill-opacity="0.0" clip-path="url(#id_0)" d="M98.40116 321.22867C98.40116 322.88553 97.058014 324.22867 95.40116 324.22867C93.74431 324.22867 92.40116 322.88553 92.40116 321.22867C92.40116 319.5718 93.74431 318.22867 95.40116 318.22867C97.058014 318.22867 98.40116 319.5718 98.40116 321.22867Z" fill-rule="nonzero"/><path fill="#000000" fill-opacity="0.0" clip-path="url(#id_0)" d="M104.63256 310.00732C104.63256 311.66418 103.28941 313.00732 101.63256 313.00732C99.9757 313.00732 98.63256 311.66418 98.63256 310.00732C98.63256 308.35046 99.9757 307.00732 101.63256 307.00732C103.28941 307.00732 104.63256 308.35046 104.63256 310.00732Z" fill-rule="nonzero"/><path fill="#000000" fill-opacity="0.0" clip-path="url(#id_0)" d="M110.86395 290.37C110.86395 292.02686 109.520805 293.37 107.86395 293.37C106.2071 293.37 104.86395 292.02686 104.86395 290.37C104.86395 288.71313 106.2071 287.37 107.86395 287.37C109.520805 287.37 110.86395 288.71313 110.86395 290.37Z" fill-rule="nonzero"/><path fill="#000000" fill-opacity="0.0" clip-path="url(#id_0)" d="M117.09535 287.56467C117.09535 289.22153 115.752205 290.56467 114.09535 290.56467C112.43849 290.56467 111.09535 289.22153 111.09535 287.56467C111.09535 285.9078 112.43849 284.56467 114.09535 284.56467C115.752205 284.56467 117.09535 285.9078 117.09535 287.56467Z" fill-rule="nonzero"/><path fill="#000000" fill-opacity="0.0" clip-path="url(#id_0)" d="M123.326744 65.94334C123.326744 67.60019 121.9836 68.94334 120.326744 68.94334C118.66989 68.94334 117.326744 67.60019 117.326744 65.94334C117.326744 64.286476 118.66989 62.943333 120.326744 62.943333C121.9836 62.943333 123.326744 64.286476 123.326744 65.94334Z" fill-rule="nonzero"/><path fill="#000000" fill-opacity="0.0" clip-path="url(#id_0)" d="M129.55814 180.962C129.55814 182.61885 128.215 183.962 126.558136 183.962C124.90128 183.962 123.558136 182.61885 123.558136 180.962C123.558136 179.30515 124.90128 177.962 126.558136 177.962C128.215 177.962 129.55814 179.30515 129.55814 180.962Z" fill-rule="nonzero"/><path fill="#000000" fill-opacity="0.0" clip-path="url(#id_0)" d="M135.78954 183.76733C135.78954 185.4242 134.4464 186.76733 132.78954 186.76733C131.13268 186.76733 129.78954 185.4242 129.78954 183.76733C129.78954 182.11047 131.13268 180.76733 132.78954 180.76733C134.4464 180.76733 135.78954 182.11047 135.78954 183.76733Z" fill-rule="nonzero"/><path fill="#000000" fill-opacity="0.0" clip-path="url(#id_0)" d="M142.02094 189.378C142.02094 191.03485 140.67778 192.378 139.02094 192.378C137.36407 192.378 136.02094 191.03485 136.02094 189.378C136.02094 187.72115 137.36407 186.378 139.02094 186.378C140.67778 186.378 142.02094 187.72115 142.02094 189.378Z" fill-rule="nonzero"/><path fill="#000000" fill-opacity="0.0" clip-path="url(#id_0)" d="M148.25232 253.90067C148.25232 255.55753 146.90918 256.90067 145.25232 256.90067C143.59547 256.90067 142.25232 255.55753 142.25232 253.90067C142.25232 252.2438 143.59547 250.90067 145.25232 250.90067C146.90918 250.90067 148.25232 252.2438 148.25232 253.90067Z" fill-rule="nonzero"/><path fill="#000000" fill-opacity="0.0" clip-path="url(#id_0)" d="M160.71512 279.14868C160.71512 280.8055 159.37196 282.14868 157.71512 282.14868C156.05826 282.14868 154.71512 280.8055 154.71512 279.14868C154.71512 277.49182 156.05826 276.14868 157.71512 276.14868C159.37196 276.14868 160.71512 277.49182 160.71512 279.14868Z" fill-rule="nonzero"/><path fill="#000000" fill-opacity="0.0" clip-path="url(#id_0)" d="M173.1779 262.31668C173.1779 263.9735 171.83476 265.31668 170.1779 265.31668C168.52106 265.31668 167.1779 263.9735 167.1779 262.31668C167.1779 260.65982 168.52106 259.31668 170.1779 259.31668C171.83476 259.31668 173.1779 260.65982 173.1779 262.31668Z" fill-rule="nonzero"/><path fill="#000000" fill-opacity="0.0" clip-path="url(#id_0)" d="M179.4093 267.92734C179.4093 269.5842 178.06616 270.92734 176.4093 270.92734C174.75244 270.92734 173.4093 269.5842 173.4093 267.92734C173.4093 266.27048 174.75244 264.92734 176.4093 264.92734C178.06616 264.92734 179.4093 266.27048 179.4093 267.92734Z" fill-rule="nonzero"/><path fill="#000000" fill-opacity="0.0" clip-path="url(#id_0)" d="M185.6407 267.92734C185.6407 269.5842 184.29755 270.92734 182.6407 270.92734C180.98384 270.92734 179.6407 269.5842 179.6407 267.92734C179.6407 266.27048 180.98384 264.92734 182.6407 264.92734C184.29755 264.92734 185.6407 266.27048 185.6407 267.92734Z" fill-rule="nonzero"/><path fill="#000000" fill-opacity="0.0" clip-path="url(#id_0)" d="M191.87209 293.17532C191.87209 294.83218 190.52895 296.17532 188.87209 296.17532C187.21524 296.17532 185.87209 294.83218 185.87209 293.17532C185.87209 291.5185 187.21524 290.17532 188.87209 290.17532C190.52895 290.17532 191.87209 291.5185 191.87209 293.17532Z" fill-rule="nonzero"/><path fill="#000000" fill-opacity="0.0" clip-path="url(#id_0)" d="M204.33488 284.75934C204.33488 286.4162 202.99174 287.75934 201.33488 287.75934C199.67802 287.75934 198.33488 286.4162 198.33488 284.75934C198.33488 283.10248 199.67802 281.75934 201.33488 281.75934C202.99174 281.75934 204.33488 283.10248 204.33488 284.75934Z" fill-rule="nonzero"/><path fill="#000000" fill-opacity="0.0" clip-path="url(#id_0)" d="M216.79767 231.458C216.79767 233.11485 215.45453 234.458 213.79767 234.458C212.14082 234.458 210.79767 233.11485 210.79767 231.458C210.79767 229.80115 212.14082 228.458 213.79767 228.458C215.45453 228.458 216.79767 229.80115 216.79767 231.458Z" fill-rule="nonzero"/><path fill="#000000" fill-opacity="0.0" clip-path="url(#id_0)" d="M223.02907 265.122C223.02907 266.77884 221.68593 268.122 220.02907 268.122C218.37222 268.122 217.02907 266.77884 217.02907 265.122C217.02907 263.46515 218.37222 262.122 220.02907 262.122C221.68593 262.122 223.02907 263.46515 223.02907 265.122Z" fill-rule="nonzero"/><path fill="#000000" fill-opacity="0.0" clip-path="url(#id_0)" d="M229.26047 287.56467C229.26047 289.22153 227.91731 290.56467 226.26047 290.56467C224.6036 290.56467 223.26047 289.22153 223.26047 287.56467C223.26047 285.9078 224.6036 284.56467 226.26047 284.56467C227.91731 284.56467 229.26047 285.9078 229.26047 287.56467Z" fill-rule="nonzero"/><path fill="#000000" fill-opacity="0.0" clip-path="url(#id_0)" d="M235.49187 259.51132C235.49187 261.16818 234.14871 262.51132 232.49187 262.51132C230.835 262.51132 229.49187 261.16818 229.49187 259.51132C229.49187 257.8545 230.835 256.51132 232.49187 256.51132C234.14871 256.51132 235.49187 257.8545 235.49187 259.51132Z" fill-rule="nonzero"/><path fill="#000000" fill-opacity="0.0" clip-path="url(#id_0)" d="M241.72325 248.29C241.72325 249.94685 240.38011 251.29 238.72325 251.29C237.0664 251.29 235.72325 249.94685 235.72325 248.29C235.72325 246.63315 237.0664 245.29 238.72325 245.29C240.38011 245.29 241.72325 246.63315 241.72325 248.29Z" fill-rule="nonzero"/><path fill="#000000" fill-opacity="0.0" clip-path="url(#id_0)" d="M247.95465 245.48466C247.95465 247.14153 246.61151 248.48466 244.95465 248.48466C243.29779 248.48466 241.95465 247.14153 241.95465 245.48466C241.95465 243.82782 243.29779 242.48466 244.95465 242.48466C246.61151 242.48466 247.95465 243.82782 247.95465 245.48466Z" fill-rule="nonzero"/><path fill="#000000" fill-opacity="0.0" clip-path="url(#id_0)" d="M254.18605 189.378C254.18605 191.03485 252.8429 192.378 251.18605 192.378C249.52919 192.378 248.18605 191.03485 248.18605 189.378C248.18605 187.72115 249.52919 186.378 251.18605 186.378C252.8429 186.378 254.18605 187.72115 254.18605 189.378Z" fill-rule="nonzero"/><path fill="#000000" fill-opacity="0.0" clip-path="url(#id_0)" d="M260.41745 225.84734C260.41745 227.50418 259.0743 228.84734 257.41745 228.84734C255.76059 228.84734 254.41743 227.50418 254.41743 225.84734C254.41743 224.19048 255.76059 222.84734 257.41745 222.84734C259.0743 222.84734 260.41745 224.19048 260.41745 225.84734Z" fill-rule="nonzero"/><path fill="#000000" fill-opacity="0.0" clip-path="url(#id_0)" d="M266.64883 206.21C266.64883 207.86685 265.3057 209.21 263.64883 209.21C261.99197 209.21 260.64883 207.86685 260.64883 206.21C260.64883 204.55315 261.99197 203.21 263.64883 203.21C265.3057 203.21 266.64883 204.55315 266.64883 206.21Z" fill-rule="nonzero"/><path fill="#000000" fill-opacity="0.0" clip-path="url(#id_0)" d="M272.88022 180.962C272.88022 182.61885 271.53708 183.962 269.88022 183.962C268.2234 183.962 266.88022 182.61885 266.88022 180.962C266.88022 179.30515 268.2234 177.962 269.88022 177.962C271.53708 177.962 272.88022 179.30515 272.88022 180.962Z" fill-rule="nonzero"/><path fill="#000000" fill-opacity="0.0" clip-path="url(#id_0)" d="M285.34302 211.82066C285.34302 213.47752 283.99988 214.82066 282.34302 214.82066C280.68616 214.82066 279.34302 213.47752 279.34302 211.82066C279.34302 210.16382 280.68616 208.82066 282.34302 208.82066C283.99988 208.82066 285.34302 210.16382 285.34302 211.82066Z" fill-rule="nonzero"/><path fill="#000000" fill-opacity="0.0" clip-path="url(#id_0)" d="M291.57443 203.40466C291.57443 205.06152 290.23126 206.40466 288.57443 206.40466C286.91757 206.40466 285.57443 205.06152 285.57443 203.40466C285.57443 201.74782 286.91757 200.40466 288.57443 200.40466C290.23126 200.40466 291.57443 201.74782 291.57443 203.40466Z" fill-rule="nonzero"/><path fill="#000000" fill-opacity="0.0" clip-path="url(#id_0)" d="M297.80582 197.794C297.80582 199.45085 296.46268 200.794 294.80582 200.794C293.14896 200.794 291.80582 199.45085 291.80582 197.794C291.80582 196.13715 293.14896 194.794 294.80582 194.794C296.46268 194.794 297.80582 196.13715 297.80582 197.794Z" fill-rule="nonzero"/><path fill="#000000" fill-opacity="0.0" clip-path="url(#id_0)" d="M304.0372 194.98866C304.0372 196.64552 302.69406 197.98866 301.0372 197.98866C299.38034 197.98866 298.0372 196.64552 298.0372 194.98866C298.0372 193.33182 299.38034 191.98866 301.0372 191.98866C302.69406 191.98866 304.0372 193.33182 304.0372 194.98866Z" fill-rule="nonzero"/><path fill="#000000" fill-opacity="0.0" clip-path="url(#id_0)" d="M310.26862 223.042C310.26862 224.69885 308.92545 226.042 307.26862 226.042C305.61176 226.042 304.26862 224.69885 304.26862 223.042C304.26862 221.38515 305.61176 220.042 307.26862 220.042C308.92545 220.042 310.26862 221.38515 310.26862 223.042Z" fill-rule="nonzero"/><path fill="#000000" fill-opacity="0.0" clip-path="url(#id_0)" d="M316.5 189.378C316.5 191.03485 315.15686 192.378 313.5 192.378C311.84314 192.378 310.5 191.03485 310.5 189.378C310.5 187.72115 311.84314 186.378 313.5 186.378C315.15686 186.378 316.5 187.72115 316.5 189.378Z" fill-rule="nonzero"/><path fill="#000000" fill-opacity="0.0" clip-path="url(#id_0)" d="M322.73138 206.21C322.73138 207.86685 321.38824 209.21 319.73138 209.21C318.07455 209.21 316.73138 207.86685 316.73138 206.21C316.73138 204.55315 318.07455 203.21 319.73138 203.21C321.38824 203.21 322.73138 204.55315 322.73138 206.21Z" fill-rule="nonzero"/><path fill="#000000" fill-opacity="0.0" clip-path="url(#id_0)" d="M328.9628 217.43134C328.9628 219.08818 327.61966 220.43134 325.9628 220.43134C324.30594 220.43134 322.9628 219.08818 322.9628 217.43134C322.9628 215.77448 324.30594 214.43134 325.9628 214.43134C327.61966 214.43134 328.9628 215.77448 328.9628 217.43134Z" fill-rule="nonzero"/><path fill="#000000" fill-opacity="0.0" clip-path="url(#id_0)" d="M335.19418 141.68733C335.19418 143.3442 333.85104 144.68733 332.19418 144.68733C330.53732 144.68733 329.19418 143.3442 329.19418 141.68733C329.19418 140.03047 330.53732 138.68733 332.19418 138.68733C333.85104 138.68733 335.19418 140.03047 335.19418 141.68733Z" fill-rule="nonzero"/><path fill="#000000" fill-opacity="0.0" clip-path="url(#id_0)" d="M341.42557 186.57266C341.42557 188.22952 340.08243 189.57266 338.42557 189.57266C336.76874 189.57266 335.42557 188.22952 335.42557 186.57266C335.42557 184.91582 336.76874 183.57266 338.42557 183.57266C340.08243 183.57266 341.42557 184.91582 341.42557 186.57266Z" fill-rule="nonzero"/><path fill="#000000" fill-opacity="0.0" clip-path="url(#id_0)" d="M347.65698 192.18333C347.65698 193.8402 346.31384 195.18333 344.65698 195.18333C343.00012 195.18333 341.65698 193.8402 341.65698 192.18333C341.65698 190.52647 343.00012 189.18333 344.65698 189.18333C346.31384 189.18333 347.65698 190.52647 347.65698 192.18333Z" fill-rule="nonzero"/><path fill="#000000" fill-opacity="0.0" clip-path="url(#id_0)" d="M353.88837 200.59933C353.88837 202.2562 352.54523 203.59933 350.88837 203.59933C349.2315 203.59933 347.88837 202.2562 347.88837 200.59933C347.88837 198.94247 349.2315 197.59933 350.88837 197.59933C352.54523 197.59933 353.88837 198.94247 353.88837 200.59933Z" fill-rule="nonzero"/><path fill="#000000" fill-opacity="0.0" clip-path="url(#id_0)" d="M360.11978 206.21C360.11978 207.86685 358.7766 209.21 357.11978 209.21C355.46292 209.21 354.11978 207.86685 354.11978 206.21C354.11978 204.55315 355.46292 203.21 357.11978 203.21C358.7766 203.21 360.11978 204.55315 360.11978 206.21Z" fill-rule="nonzero"/><path fill="#000000" fill-opacity="0.0" clip-path="url(#id_0)" d="M366.35117 178.15666C366.35117 179.81352 365.00803 181.15666 363.35117 181.15666C361.6943 181.15666 360.35117 179.81352 360.35117 178.15666C360.35117 176.49982 361.6943 175.15666 363.35117 175.15666C365.00803 175.15666 366.35117 176.49982 366.35117 178.15666Z" fill-rule="nonzero"/><path fill="#000000" fill-opacity="0.0" clip-path="url(#id_0)" d="M372.58255 178.15666C372.58255 179.81352 371.2394 181.15666 369.58255 181.15666C367.9257 181.15666 366.58255 179.81352 366.58255 178.15666C366.58255 176.49982 367.9257 175.15666 369.58255 175.15666C371.2394 175.15666 372.58255 176.49982 372.58255 178.15666Z" fill-rule="nonzero"/><path fill="#000000" fill-opacity="0.0" clip-path="url(#id_0)" d="M378.81396 175.35133C378.81396 177.0082 377.4708 178.35133 375.81396 178.35133C374.1571 178.35133 372.81396 177.0082 372.81396 175.35133C372.81396 173.69447 374.1571 172.35133 375.81396 172.35133C377.4708 172.35133 378.81396 173.69447 378.81396 175.35133Z" fill-rule="nonzero"/><path fill="#000000" fill-opacity="0.0" clip-path="url(#id_0)" d="M385.04535 164.13C385.04535 165.78685 383.7022 167.13 382.04535 167.13C380.3885 167.13 379.04535 165.78685 379.04535 164.13C379.04535 162.47314 380.3885 161.13 382.04535 161.13C383.7022 161.13 385.04535 162.47314 385.04535 164.13Z" fill-rule="nonzero"/><path fill="#000000" fill-opacity="0.0" clip-path="url(#id_0)" d="M391.27673 169.74066C391.27673 171.39752 389.9336 172.74066 388.27673 172.74066C386.6199 172.74066 385.27673 171.39752 385.27673 169.74066C385.27673 168.08382 386.6199 166.74066 388.27673 166.74066C389.9336 166.74066 391.27673 168.08382 391.27673 169.74066Z" fill-rule="nonzero"/><path fill="#000000" fill-opacity="0.0" clip-path="url(#id_0)" d="M397.50815 141.68733C397.50815 143.3442 396.165 144.68733 394.50815 144.68733C392.8513 144.68733 391.50815 143.3442 391.50815 141.68733C391.50815 140.03047 392.8513 138.68733 394.50815 138.68733C396.165 138.68733 397.50815 140.03047 397.50815 141.68733Z" fill-rule="nonzero"/><path fill="#000000" fill-opacity="0.0" clip-path="url(#id_0)" d="M403.73953 180.962C403.73953 182.61885 402.3964 183.962 400.73953 183.962C399.08267 183.962 397.73953 182.61885 397.73953 180.962C397.73953 179.30515 399.08267 177.962 400.73953 177.962C402.3964 177.962 403.73953 179.30515 403.73953 180.962Z" fill-rule="nonzero"/><path fill="#000000" fill-opacity="0.0" clip-path="url(#id_0)" d="M409.97092 152.90866C409.97092 154.56552 408.62778 155.90866 406.97092 155.90866C405.3141 155.90866 403.97092 154.56552 403.97092 152.90866C403.97092 151.25182 405.3141 149.90866 406.97092 149.90866C408.62778 149.90866 409.97092 151.25182 409.97092 152.90866Z" fill-rule="nonzero"/><path fill="#000000" fill-opacity="0.0" clip-path="url(#id_0)" d="M416.20233 186.57266C416.20233 188.22952 414.8592 189.57266 413.20233 189.57266C411.54547 189.57266 410.20233 188.22952 410.20233 186.57266C410.20233 184.91582 411.54547 183.57266 413.20233 183.57266C414.8592 183.57266 416.20233 184.91582 416.20233 186.57266Z" fill-rule="nonzero"/><path fill="#000000" fill-opacity="0.0" clip-path="url(#id_0)" d="M422.43372 211.82066C422.43372 213.47752 421.09058 214.82066 419.43372 214.82066C417.77686 214.82066 416.43372 213.47752 416.43372 211.82066C416.43372 210.16382 417.77686 208.82066 419.43372 208.82066C421.09058 208.82066 422.43372 210.16382 422.43372 211.82066Z" fill-rule="nonzero"/><path fill="#000000" fill-opacity="0.0" clip-path="url(#id_0)" d="M428.66513 175.35133C428.66513 177.0082 427.32196 178.35133 425.66513 178.35133C424.00827 178.35133 422.66513 177.0082 422.66513 175.35133C422.66513 173.69447 424.00827 172.35133 425.66513 172.35133C427.32196 172.35133 428.66513 173.69447 428.66513 175.35133Z" fill-rule="nonzero"/><path fill="#000000" fill-opacity="0.0" clip-path="url(#id_0)" d="M434.8965 189.378C434.8965 191.03485 433.55338 192.378 431.8965 192.378C430.23965 192.378 428.8965 191.03485 428.8965 189.378C428.8965 187.72115 430.23965 186.378 431.8965 186.378C433.55338 186.378 434.8965 187.72115 434.8965 189.378Z" fill-rule="nonzero"/><path fill="#000000" fill-opacity="0.0" clip-path="url(#id_0)" d="M441.1279 180.962C441.1279 182.61885 439.78476 183.962 438.1279 183.962C436.47104 183.962 435.1279 182.61885 435.1279 180.962C435.1279 179.30515 436.47104 177.962 438.1279 177.962C439.78476 177.962 441.1279 179.30515 441.1279 180.962Z" fill-rule="nonzero"/><path fill="#000000" fill-opacity="0.0" clip-path="url(#id_0)" d="M447.3593 169.74066C447.3593 171.39752 446.01614 172.74066 444.3593 172.74066C442.70245 172.74066 441.3593 171.39752 441.3593 169.74066C441.3593 168.08382 442.70245 166.74066 444.3593 166.74066C446.01614 166.74066 447.3593 168.08382 447.3593 169.74066Z" fill-rule="nonzero"/><path fill="#000000" fill-opacity="0.0" clip-path="url(#id_0)" d="M453.5907 180.962C453.5907 182.61885 452.24756 183.962 450.5907 183.962C448.93384 183.962 447.5907 182.61885 447.5907 180.962C447.5907 179.30515 448.93384 177.962 450.5907 177.962C452.24756 177.962 453.5907 179.30515 453.5907 180.962Z" fill-rule="nonzero"/><path fill="#000000" fill-opacity="0.0" clip-path="url(#id_0)" d="M459.82208 214.626C459.82208 216.28285 458.47894 217.626 456.82208 217.626C455.16525 217.626 453.82208 216.28285 453.82208 214.626C453.82208 212.96915 455.16525 211.626 456.82208 211.626C458.47894 211.626 459.82208 212.96915 459.82208 214.626Z" fill-rule="nonzero"/><path fill="#000000" fill-opacity="0.0" clip-path="url(#id_0)" d="M466.0535 186.57266C466.0535 188.22952 464.71036 189.57266 463.0535 189.57266C461.39664 189.57266 460.0535 188.22952 460.0535 186.57266C460.0535 184.91582 461.39664 183.57266 463.0535 183.57266C464.71036 183.57266 466.0535 184.91582 466.0535 186.57266Z" fill-rule="nonzero"/><path fill="#000000" fill-opacity="0.0" clip-path="url(#id_0)" d="M472.28488 197.794C472.28488 199.45085 470.94174 200.794 469.28488 200.794C467.62802 200.794 466.28488 199.45085 466.28488 197.794C466.28488 196.13715 467.62802 194.794 469.28488 194.794C470.94174 194.794 472.28488 196.13715 472.28488 197.794Z" fill-rule="nonzero"/><path fill="#000000" fill-opacity="0.0" clip-path="url(#id_0)" d="M478.51627 192.18333C478.51627 193.8402 477.17313 195.18333 475.51627 195.18333C473.85944 195.18333 472.51627 193.8402 472.51627 192.18333C472.51627 190.52647 473.85944 189.18333 475.51627 189.18333C477.17313 189.18333 478.51627 190.52647 478.51627 192.18333Z" fill-rule="nonzero"/><path fill="#000000" fill-opacity="0.0" clip-path="url(#id_0)" d="M484.74768 206.21C484.74768 207.86685 483.40454 209.21 481.74768 209.21C480.09082 209.21 478.74768 207.86685 478.74768 206.21C478.74768 204.55315 480.09082 203.21 481.74768 203.21C483.40454 203.21 484.74768 204.55315 484.74768 206.21Z" fill-rule="nonzero"/><path fill="#000000" fill-opacity="0.0" clip-path="url(#id_0)" d="M490.97906 138.882C490.97906 140.53885 489.63593 141.882 487.97906 141.882C486.3222 141.882 484.97906 140.53885 484.97906 138.882C484.97906 137.22514 486.3222 135.882 487.97906 135.882C489.63593 135.882 490.97906 137.22514 490.97906 138.882Z" fill-rule="nonzero"/><path fill="#000000" fill-opacity="0.0" clip-path="url(#id_0)" d="M497.21048 164.13C497.21048 165.78685 495.8673 167.13 494.21048 167.13C492.55362 167.13 491.21048 165.78685 491.21048 164.13C491.21048 162.47314 492.55362 161.13 494.21048 161.13C495.8673 161.13 497.21048 162.47314 497.21048 164.13Z" fill-rule="nonzero"/><path fill="#000000" fill-opacity="0.0" clip-path="url(#id_0)" d="M503.44186 161.32466C503.44186 162.98152 502.09872 164.32466 500.44186 164.32466C498.785 164.32466 497.44186 162.98152 497.44186 161.32466C497.44186 159.66782 498.785 158.32466 500.44186 158.32466C502.09872 158.32466 503.44186 159.66782 503.44186 161.32466Z" fill-rule="nonzero"/><path fill="#000000" fill-opacity="0.0" clip-path="url(#id_0)" d="M509.67325 175.35133C509.67325 177.0082 508.3301 178.35133 506.67325 178.35133C505.0164 178.35133 503.67325 177.0082 503.67325 175.35133C503.67325 173.69447 505.0164 172.35133 506.67325 172.35133C508.3301 172.35133 509.67325 173.69447 509.67325 175.35133Z" fill-rule="nonzero"/><path fill="#000000" fill-opacity="0.0" clip-path="url(#id_0)" d="M515.90466 166.93533C515.90466 168.5922 514.5615 169.93533 512.90466 169.93533C511.2478 169.93533 509.90466 168.5922 509.90466 166.93533C509.90466 165.27847 511.2478 163.93533 512.90466 163.93533C514.5615 163.93533 515.90466 165.27847 515.90466 166.93533Z" fill-rule="nonzero"/><path fill="#000000" fill-opacity="0.0" clip-path="url(#id_0)" d="M528.36743 138.882C528.36743 140.53885 527.0243 141.882 525.36743 141.882C523.7106 141.882 522.36743 140.53885 522.36743 138.882C522.36743 137.22514 523.7106 135.882 525.36743 135.882C527.0243 135.882 528.36743 137.22514 528.36743 138.882Z" fill-rule="nonzero"/><path fill="#000000" fill-opacity="0.0" clip-path="url(#id_0)" d="M534.5988 150.10333C534.5988 151.7602 533.2557 153.10333 531.5988 153.10333C529.94196 153.10333 528.5988 151.7602 528.5988 150.10333C528.5988 148.44647 529.94196 147.10333 531.5988 147.10333C533.2557 147.10333 534.5988 148.44647 534.5988 150.10333Z" fill-rule="nonzero"/><path fill="#000000" fill-opacity="0.0" clip-path="url(#id_0)" d="M540.83026 178.15666C540.83026 179.81352 539.48706 181.15666 537.83026 181.15666C536.1734 181.15666 534.83026 179.81352 534.83026 178.15666C534.83026 176.49982 536.1734 175.15666 537.83026 175.15666C539.48706 175.15666 540.83026 176.49982 540.83026 178.15666Z" fill-rule="nonzero"/><path fill="#000000" fill-opacity="0.0" clip-path="url(#id_0)" d="M547.06165 155.714C547.06165 157.37085 545.7185 158.714 544.06165 158.714C542.4048 158.714 541.06165 157.37085 541.06165 155.714C541.06165 154.05714 542.4048 152.714 544.06165 152.714C545.7185 152.714 547.06165 154.05714 547.06165 155.714Z" fill-rule="nonzero"/><path fill="#000000" fill-opacity="0.0" clip-path="url(#id_0)" d="M553.293 161.32466C553.293 162.98152 551.9499 164.32466 550.293 164.32466C548.63617 164.32466 547.293 162.98152 547.293 161.32466C547.293 159.66782 548.63617 158.32466 550.293 158.32466C551.9499 158.32466 553.293 159.66782 553.293 161.32466Z" fill-rule="nonzero"/><path fill="#000000" fill-opacity="0.0" clip-path="url(#id_0)" d="M559.5244 136.07666C559.5244 137.73352 558.1813 139.07666 556.5244 139.07666C554.86755 139.07666 553.5244 137.73352 553.5244 136.07666C553.5244 134.41982 554.86755 133.07666 556.5244 133.07666C558.1813 133.07666 559.5244 134.41982 559.5244 136.07666Z" fill-rule="nonzero"/><path fill="#000000" fill-opacity="0.0" clip-path="url(#id_0)" d="M565.7558 122.05C565.7558 123.706856 564.41266 125.05 562.7558 125.05C561.09894 125.05 559.7558 123.706856 559.7558 122.05C559.7558 120.39314 561.09894 119.05 562.7558 119.05C564.41266 119.05 565.7558 120.39314 565.7558 122.05Z" fill-rule="nonzero"/><path fill="#000000" fill-opacity="0.0" clip-path="url(#id_0)" d="M571.9872 99.60733C571.9872 101.26419 570.64404 102.60733 568.9872 102.60733C567.3304 102.60733 565.9872 101.26419 565.9872 99.60733C565.9872 97.95048 567.3304 96.60733 568.9872 96.60733C570.64404 96.60733 571.9872 97.95048 571.9872 99.60733Z" fill-rule="nonzero"/><path fill="#000000" fill-opacity="0.0" clip-path="url(#id_0)" d="M578.2186 136.07666C578.2186 137.73352 576.8755 139.07666 575.2186 139.07666C573.56177 139.07666 572.2186 137.73352 572.2186 136.07666C572.2186 134.41982 573.56177 133.07666 575.2186 133.07666C576.8755 133.07666 578.2186 134.41982 578.2186 136.07666Z" fill-rule="nonzero"/><path fill="#000000" fill-opacity="0.0" clip-path="url(#id_0)" d="M584.45 324.034C584.45 325.69086 583.1069 327.034 581.45 327.034C579.79315 327.034 578.45 325.69086 578.45 324.034C578.45 322.37714 579.79315 321.034 581.45 321.034C583.1069 321.034 584.45 322.37714 584.45 324.034Z" fill-rule="nonzero"/><path fill="#000000" fill-opacity="0.0" clip-path="url(#id_0)" d="M48.55 332.45C48.55 334.10684 47.206856 335.45 45.55 335.45C43.893147 335.45 42.55 334.10684 42.55 332.45C42.55 330.79315 43.893147 329.45 45.55 329.45C47.206856 329.45 48.55 330.79315 48.55 332.45Z" fill-rule="nonzero"/><path fill="#000000" fill-opacity="0.0" clip-path="url(#id_0)" d="M73.47558 332.45C73.47558 334.10684 72.13244 335.45 70.47558 335.45C68.818726 335.45 67.47558 334.10684 67.47558 332.45C67.47558 330.79315 68.818726 329.45 70.47558 329.45C72.13244 329.45 73.47558 330.79315 73.47558 332.45Z" fill-rule="nonzero"/><path fill="#000000" fill-opacity="0.0" clip-path="url(#id_0)" d="M79.70698 332.45C79.70698 334.10684 78.36383 335.45 76.70698 335.45C75.050125 335.45 73.70698 334.10684 73.70698 332.45C73.70698 330.79315 75.050125 329.45 76.70698 329.45C78.36383 329.45 79.70698 330.79315 79.70698 332.45Z" fill-rule="nonzero"/><path fill="#000000" fill-opacity="0.0" clip-path="url(#id_0)" d="M92.16977 332.45C92.16977 334.10684 90.82662 335.45 89.16977 335.45C87.51292 335.45 86.16977 334.10684 86.16977 332.45C86.16977 330.79315 87.51292 329.45 89.16977 329.45C90.82662 329.45 92.16977 330.79315 92.16977 332.45Z" fill-rule="nonzero"/><path fill="#000000" fill-opacity="0.0" clip-path="url(#id_0)" d="M98.40116 332.45C98.40116 334.10684 97.058014 335.45 95.40116 335.45C93.74431 335.45 92.40116 334.10684 92.40116 332.45C92.40116 330.79315 93.74431 329.45 95.40116 329.45C97.058014 329.45 98.40116 330.79315 98.40116 332.45Z" fill-rule="nonzero"/><path fill="#000000" fill-opacity="0.0" clip-path="url(#id_0)" d="M104.63256 332.45C104.63256 334.10684 103.28941 335.45 101.63256 335.45C99.9757 335.45 98.63256 334.10684 98.63256 332.45C98.63256 330.79315 99.9757 329.45 101.63256 329.45C103.28941 329.45 104.63256 330.79315 104.63256 332.45Z" fill-rule="nonzero"/><path fill="#000000" fill-opacity="0.0" clip-path="url(#id_0)" d="M110.86395 332.45C110.86395 334.10684 109.520805 335.45 107.86395 335.45C106.2071 335.45 104.86395 334.10684 104.86395 332.45C104.86395 330.79315 106.2071 329.45 107.86395 329.45C109.520805 329.45 110.86395 330.79315 110.86395 332.45Z" fill-rule="nonzero"/><path fill="#000000" fill-opacity="0.0" clip-path="url(#id_0)" d="M117.09535 329.64465C117.09535 331.3015 115.752205 332.64465 114.09535 332.64465C112.43849 332.64465 111.09535 331.3015 111.09535 329.64465C111.09535 327.98782 112.43849 326.64465 114.09535 326.64465C115.752205 326.64465 117.09535 327.98782 117.09535 329.64465Z" fill-rule="nonzero"/><path fill="#000000" fill-opacity="0.0" clip-path="url(#id_0)" d="M123.326744 326.83932C123.326744 328.4962 121.9836 329.83932 120.326744 329.83932C118.66989 329.83932 117.326744 328.4962 117.326744 326.83932C117.326744 325.18246 118.66989 323.83932 120.326744 323.83932C121.9836 323.83932 123.326744 325.18246 123.326744 326.83932Z" fill-rule="nonzero"/><path fill="#000000" fill-opacity="0.0" clip-path="url(#id_0)" d="M129.55814 332.45C129.55814 334.10684 128.215 335.45 126.558136 335.45C124.90128 335.45 123.558136 334.10684 123.558136 332.45C123.558136 330.79315 124.90128 329.45 126.558136 329.45C128.215 329.45 129.55814 330.79315 129.55814 332.45Z" fill-rule="nonzero"/><path fill="#000000" fill-opacity="0.0" clip-path="url(#id_0)" d="M135.78954 332.45C135.78954 334.10684 134.4464 335.45 132.78954 335.45C131.13268 335.45 129.78954 334.10684 129.78954 332.45C129.78954 330.79315 131.13268 329.45 132.78954 329.45C134.4464 329.45 135.78954 330.79315 135.78954 332.45Z" fill-rule="nonzero"/><path fill="#000000" fill-opacity="0.0" clip-path="url(#id_0)" d="M142.02094 326.83932C142.02094 328.4962 140.67778 329.83932 139.02094 329.83932C137.36407 329.83932 136.02094 328.4962 136.02094 326.83932C136.02094 325.18246 137.36407 323.83932 139.02094 323.83932C140.67778 323.83932 142.02094 325.18246 142.02094 326.83932Z" fill-rule="nonzero"/><path fill="#000000" fill-opacity="0.0" clip-path="url(#id_0)" d="M148.25232 332.45C148.25232 334.10684 146.90918 335.45 145.25232 335.45C143.59547 335.45 142.25232 334.10684 142.25232 332.45C142.25232 330.79315 143.59547 329.45 145.25232 329.45C146.90918 329.45 148.25232 330.79315 148.25232 332.45Z" fill-rule="nonzero"/><path fill="#000000" fill-opacity="0.0" clip-path="url(#id_0)" d="M160.71512 332.45C160.71512 334.10684 159.37196 335.45 157.71512 335.45C156.05826 335.45 154.71512 334.10684 154.71512 332.45C154.71512 330.79315 156.05826 329.45 157.71512 329.45C159.37196 329.45 160.71512 330.79315 160.71512 332.45Z" fill-rule="nonzero"/><path fill="#000000" fill-opacity="0.0" clip-path="url(#id_0)" d="M173.1779 332.45C173.1779 334.10684 171.83476 335.45 170.1779 335.45C168.52106 335.45 167.1779 334.10684 167.1779 332.45C167.1779 330.79315 168.52106 329.45 170.1779 329.45C171.83476 329.45 173.1779 330.79315 173.1779 332.45Z" fill-rule="nonzero"/><path fill="#000000" fill-opacity="0.0" clip-path="url(#id_0)" d="M179.4093 329.64465C179.4093 331.3015 178.06616 332.64465 176.4093 332.64465C174.75244 332.64465 173.4093 331.3015 173.4093 329.64465C173.4093 327.98782 174.75244 326.64465 176.4093 326.64465C178.06616 326.64465 179.4093 327.98782 179.4093 329.64465Z" fill-rule="nonzero"/><path fill="#000000" fill-opacity="0.0" clip-path="url(#id_0)" d="M185.6407 332.45C185.6407 334.10684 184.29755 335.45 182.6407 335.45C180.98384 335.45 179.6407 334.10684 179.6407 332.45C179.6407 330.79315 180.98384 329.45 182.6407 329.45C184.29755 329.45 185.6407 330.79315 185.6407 332.45Z" fill-rule="nonzero"/><path fill="#000000" fill-opacity="0.0" clip-path="url(#id_0)" d="M191.87209 332.45C191.87209 334.10684 190.52895 335.45 188.87209 335.45C187.21524 335.45 185.87209 334.10684 185.87209 332.45C185.87209 330.79315 187.21524 329.45 188.87209 329.45C190.52895 329.45 191.87209 330.79315 191.87209 332.45Z" fill-rule="nonzero"/><path fill="#000000" fill-opacity="0.0" clip-path="url(#id_0)" d="M204.33488 332.45C204.33488 334.10684 202.99174 335.45 201.33488 335.45C199.67802 335.45 198.33488 334.10684 198.33488 332.45C198.33488 330.79315 199.67802 329.45 201.33488 329.45C202.99174 329.45 204.33488 330.79315 204.33488 332.45Z" fill-rule="nonzero"/><path fill="#000000" fill-opacity="0.0" clip-path="url(#id_0)" d="M216.79767 332.45C216.79767 334.10684 215.45453 335.45 213.79767 335.45C212.14082 335.45 210.79767 334.10684 210.79767 332.45C210.79767 330.79315 212.14082 329.45 213.79767 329.45C215.45453 329.45 216.79767 330.79315 216.79767 332.45Z" fill-rule="nonzero"/><path fill="#000000" fill-opacity="0.0" clip-path="url(#id_0)" d="M223.02907 332.45C223.02907 334.10684 221.68593 335.45 220.02907 335.45C218.37222 335.45 217.02907 334.10684 217.02907 332.45C217.02907 330.79315 218.37222 329.45 220.02907 329.45C221.68593 329.45 223.02907 330.79315 223.02907 332.45Z" fill-rule="nonzero"/><path fill="#000000" fill-opacity="0.0" clip-path="url(#id_0)" d="M229.26047 332.45C229.26047 334.10684 227.91731 335.45 226.26047 335.45C224.6036 335.45 223.26047 334.10684 223.26047 332.45C223.26047 330.79315 224.6036 329.45 226.26047 329.45C227.91731 329.45 229.26047 330.79315 229.26047 332.45Z" fill-rule="nonzero"/><path fill="#000000" fill-opacity="0.0" clip-path="url(#id_0)" d="M235.49187 332.45C235.49187 334.10684 234.14871 335.45 232.49187 335.45C230.835 335.45 229.49187 334.10684 229.49187 332.45C229.49187 330.79315 230.835 329.45 232.49187 329.45C234.14871 329.45 235.49187 330.79315 235.49187 332.45Z" fill-rule="nonzero"/><path fill="#000000" fill-opacity="0.0" clip-path="url(#id_0)" d="M241.72325 332.45C241.72325 334.10684 240.38011 335.45 238.72325 335.45C237.0664 335.45 235.72325 334.10684 235.72325 332.45C235.72325 330.79315 237.0664 329.45 238.72325 329.45C240.38011 329.45 241.72325 330.79315 241.72325 332.45Z" fill-rule="nonzero"/><path fill="#000000" fill-opacity="0.0" clip-path="url(#id_0)" d="M247.95465 332.45C247.95465 334.10684 246.61151 335.45 244.95465 335.45C243.29779 335.45 241.95465 334.10684 241.95465 332.45C241.95465 330.79315 243.29779 329.45 244.95465 329.45C246.61151 329.45 247.95465 330.79315 247.95465 332.45Z" fill-rule="nonzero"/><path fill="#000000" fill-opacity="0.0" clip-path="url(#id_0)" d="M254.18605 332.45C254.18605 334.10684 252.8429 335.45 251.18605 335.45C249.52919 335.45 248.18605 334.10684 248.18605 332.45C248.18605 330.79315 249.52919 329.45 251.18605 329.45C252.8429 329.45 254.18605 330.79315 254.18605 332.45Z" fill-rule="nonzero"/><path fill="#000000" fill-opacity="0.0" clip-path="url(#id_0)" d="M260.41745 332.45C260.41745 334.10684 259.0743 335.45 257.41745 335.45C255.76059 335.45 254.41743 334.10684 254.41743 332.45C254.41743 330.79315 255.76059 329.45 257.41745 329.45C259.0743 329.45 260.41745 330.79315 260.41745 332.45Z" fill-rule="nonzero"/><path fill="#000000" fill-opacity="0.0" clip-path="url(#id_0)" d="M266.64883 332.45C266.64883 334.10684 265.3057 335.45 263.64883 335.45C261.99197 335.45 260.64883 334.10684 260.64883 332.45C260.64883 330.79315 261.99197 329.45 263.64883 329.45C265.3057 329.45 266.64883 330.79315 266.64883 332.45Z" fill-rule="nonzero"/><path fill="#000000" fill-opacity="0.0" clip-path="url(#id_0)" d="M272.88022 329.64465C272.88022 331.3015 271.53708 332.64465 269.88022 332.64465C268.2234 332.64465 266.88022 331.3015 266.88022 329.64465C266.88022 327.98782 268.2234 326.64465 269.88022 326.64465C271.53708 326.64465 272.88022 327.98782 272.88022 329.64465Z" fill-rule="nonzero"/><path fill="#000000" fill-opacity="0.0" clip-path="url(#id_0)" d="M285.34302 332.45C285.34302 334.10684 283.99988 335.45 282.34302 335.45C280.68616 335.45 279.34302 334.10684 279.34302 332.45C279.34302 330.79315 280.68616 329.45 282.34302 329.45C283.99988 329.45 285.34302 330.79315 285.34302 332.45Z" fill-rule="nonzero"/><path fill="#000000" fill-opacity="0.0" clip-path="url(#id_0)" d="M291.57443 324.034C291.57443 325.69086 290.23126 327.034 288.57443 327.034C286.91757 327.034 285.57443 325.69086 285.57443 324.034C285.57443 322.37714 286.91757 321.034 288.57443 321.034C290.23126 321.034 291.57443 322.37714 291.57443 324.034Z" fill-rule="nonzero"/><path fill="#000000" fill-opacity="0.0" clip-path="url(#id_0)" d="M297.80582 329.64465C297.80582 331.3015 296.46268 332.64465 294.80582 332.64465C293.14896 332.64465 291.80582 331.3015 291.80582 329.64465C291.80582 327.98782 293.14896 326.64465 294.80582 326.64465C296.46268 326.64465 297.80582 327.98782 297.80582 329.64465Z" fill-rule="nonzero"/><path fill="#000000" fill-opacity="0.0" clip-path="url(#id_0)" d="M304.0372 329.64465C304.0372 331.3015 302.69406 332.64465 301.0372 332.64465C299.38034 332.64465 298.0372 331.3015 298.0372 329.64465C298.0372 327.98782 299.38034 326.64465 301.0372 326.64465C302.69406 326.64465 304.0372 327.98782 304.0372 329.64465Z" fill-rule="nonzero"/><path fill="#000000" fill-opacity="0.0" clip-path="url(#id_0)" d="M310.26862 321.22867C310.26862 322.88553 308.92545 324.22867 307.26862 324.22867C305.61176 324.22867 304.26862 322.88553 304.26862 321.22867C304.26862 319.5718 305.61176 318.22867 307.26862 318.22867C308.92545 318.22867 310.26862 319.5718 310.26862 321.22867Z" fill-rule="nonzero"/><path fill="#000000" fill-opacity="0.0" clip-path="url(#id_0)" d="M316.5 329.64465C316.5 331.3015 315.15686 332.64465 313.5 332.64465C311.84314 332.64465 310.5 331.3015 310.5 329.64465C310.5 327.98782 311.84314 326.64465 313.5 326.64465C315.15686 326.64465 316.5 327.98782 316.5 329.64465Z" fill-rule="nonzero"/><path fill="#000000" fill-opacity="0.0" clip-path="url(#id_0)" d="M322.73138 326.83932C322.73138 328.4962 321.38824 329.83932 319.73138 329.83932C318.07455 329.83932 316.73138 328.4962 316.73138 326.83932C316.73138 325.18246 318.07455 323.83932 319.73138 323.83932C321.38824 323.83932 322.73138 325.18246 322.73138 326.83932Z" fill-rule="nonzero"/><path fill="#000000" fill-opacity="0.0" clip-path="url(#id_0)" d="M328.9628 318.42334C328.9628 320.0802 327.61966 321.42334 325.9628 321.42334C324.30594 321.42334 322.9628 320.0802 322.9628 318.42334C322.9628 316.76648 324.30594 315.42334 325.9628 315.42334C327.61966 315.42334 328.9628 316.76648 328.9628 318.42334Z" fill-rule="nonzero"/><path fill="#000000" fill-opacity="0.0" clip-path="url(#id_0)" d="M335.19418 324.034C335.19418 325.69086 333.85104 327.034 332.19418 327.034C330.53732 327.034 329.19418 325.69086 329.19418 324.034C329.19418 322.37714 330.53732 321.034 332.19418 321.034C333.85104 321.034 335.19418 322.37714 335.19418 324.034Z" fill-rule="nonzero"/><path fill="#000000" fill-opacity="0.0" clip-path="url(#id_0)" d="M341.42557 310.00732C341.42557 311.66418 340.08243 313.00732 338.42557 313.00732C336.76874 313.00732 335.42557 311.66418 335.42557 310.00732C335.42557 308.35046 336.76874 307.00732 338.42557 307.00732C340.08243 307.00732 341.42557 308.35046 341.42557 310.00732Z" fill-rule="nonzero"/><path fill="#000000" fill-opacity="0.0" clip-path="url(#id_0)" d="M347.65698 326.83932C347.65698 328.4962 346.31384 329.83932 344.65698 329.83932C343.00012 329.83932 341.65698 328.4962 341.65698 326.83932C341.65698 325.18246 343.00012 323.83932 344.65698 323.83932C346.31384 323.83932 347.65698 325.18246 347.65698 326.83932Z" fill-rule="nonzero"/><path fill="#000000" fill-opacity="0.0" clip-path="url(#id_0)" d="M353.88837 310.00732C353.88837 311.66418 352.54523 313.00732 350.88837 313.00732C349.2315 313.00732 347.88837 311.66418 347.88837 310.00732C347.88837 308.35046 349.2315 307.00732 350.88837 307.00732C352.54523 307.00732 353.88837 308.35046 353.88837 310.00732Z" fill-rule="nonzero"/><path fill="#000000" fill-opacity="0.0" clip-path="url(#id_0)" d="M360.11978 315.618C360.11978 317.27484 358.7766 318.618 357.11978 318.618C355.46292 318.618 354.11978 317.27484 354.11978 315.618C354.11978 313.96115 355.46292 312.618 357.11978 312.618C358.7766 312.618 360.11978 313.96115 360.11978 315.618Z" fill-rule="nonzero"/><path fill="#000000" fill-opacity="0.0" clip-path="url(#id_0)" d="M366.35117 298.786C366.35117 300.44284 365.00803 301.786 363.35117 301.786C361.6943 301.786 360.35117 300.44284 360.35117 298.786C360.35117 297.12915 361.6943 295.786 363.35117 295.786C365.00803 295.786 366.35117 297.12915 366.35117 298.786Z" fill-rule="nonzero"/><path fill="#000000" fill-opacity="0.0" clip-path="url(#id_0)" d="M372.58255 312.81265C372.58255 314.4695 371.2394 315.81265 369.58255 315.81265C367.9257 315.81265 366.58255 314.4695 366.58255 312.81265C366.58255 311.15582 367.9257 309.81265 369.58255 309.81265C371.2394 309.81265 372.58255 311.15582 372.58255 312.81265Z" fill-rule="nonzero"/><path fill="#000000" fill-opacity="0.0" clip-path="url(#id_0)" d="M378.81396 321.22867C378.81396 322.88553 377.4708 324.22867 375.81396 324.22867C374.1571 324.22867 372.81396 322.88553 372.81396 321.22867C372.81396 319.5718 374.1571 318.22867 375.81396 318.22867C377.4708 318.22867 378.81396 319.5718 378.81396 321.22867Z" fill-rule="nonzero"/><path fill="#000000" fill-opacity="0.0" clip-path="url(#id_0)" d="M385.04535 304.39667C385.04535 306.05353 383.7022 307.39667 382.04535 307.39667C380.3885 307.39667 379.04535 306.05353 379.04535 304.39667C379.04535 302.7398 380.3885 301.39667 382.04535 301.39667C383.7022 301.39667 385.04535 302.7398 385.04535 304.39667Z" fill-rule="nonzero"/><path fill="#000000" fill-opacity="0.0" clip-path="url(#id_0)" d="M391.27673 326.83932C391.27673 328.4962 389.9336 329.83932 388.27673 329.83932C386.6199 329.83932 385.27673 328.4962 385.27673 326.83932C385.27673 325.18246 386.6199 323.83932 388.27673 323.83932C389.9336 323.83932 391.27673 325.18246 391.27673 326.83932Z" fill-rule="nonzero"/><path fill="#000000" fill-opacity="0.0" clip-path="url(#id_0)" d="M397.50815 290.37C397.50815 292.02686 396.165 293.37 394.50815 293.37C392.8513 293.37 391.50815 292.02686 391.50815 290.37C391.50815 288.71313 392.8513 287.37 394.50815 287.37C396.165 287.37 397.50815 288.71313 397.50815 290.37Z" fill-rule="nonzero"/><path fill="#000000" fill-opacity="0.0" clip-path="url(#id_0)" d="M403.73953 318.42334C403.73953 320.0802 402.3964 321.42334 400.73953 321.42334C399.08267 321.42334 397.73953 320.0802 397.73953 318.42334C397.73953 316.76648 399.08267 315.42334 400.73953 315.42334C402.3964 315.42334 403.73953 316.76648 403.73953 318.42334Z" fill-rule="nonzero"/><path fill="#000000" fill-opacity="0.0" clip-path="url(#id_0)" d="M409.97092 298.786C409.97092 300.44284 408.62778 301.786 406.97092 301.786C405.3141 301.786 403.97092 300.44284 403.97092 298.786C403.97092 297.12915 405.3141 295.786 406.97092 295.786C408.62778 295.786 409.97092 297.12915 409.97092 298.786Z" fill-rule="nonzero"/><path fill="#000000" fill-opacity="0.0" clip-path="url(#id_0)" d="M416.20233 293.17532C416.20233 294.83218 414.8592 296.17532 413.20233 296.17532C411.54547 296.17532 410.20233 294.83218 410.20233 293.17532C410.20233 291.5185 411.54547 290.17532 413.20233 290.17532C414.8592 290.17532 416.20233 291.5185 416.20233 293.17532Z" fill-rule="nonzero"/><path fill="#000000" fill-opacity="0.0" clip-path="url(#id_0)" d="M422.43372 295.98065C422.43372 297.6375 421.09058 298.98065 419.43372 298.98065C417.77686 298.98065 416.43372 297.6375 416.43372 295.98065C416.43372 294.32382 417.77686 292.98065 419.43372 292.98065C421.09058 292.98065 422.43372 294.32382 422.43372 295.98065Z" fill-rule="nonzero"/><path fill="#000000" fill-opacity="0.0" clip-path="url(#id_0)" d="M428.66513 290.37C428.66513 292.02686 427.32196 293.37 425.66513 293.37C424.00827 293.37 422.66513 292.02686 422.66513 290.37C422.66513 288.71313 424.00827 287.37 425.66513 287.37C427.32196 287.37 428.66513 288.71313 428.66513 290.37Z" fill-rule="nonzero"/><path fill="#000000" fill-opacity="0.0" clip-path="url(#id_0)" d="M434.8965 279.14868C434.8965 280.8055 433.55338 282.14868 431.8965 282.14868C430.23965 282.14868 428.8965 280.8055 428.8965 279.14868C428.8965 277.49182 430.23965 276.14868 431.8965 276.14868C433.55338 276.14868 434.8965 277.49182 434.8965 279.14868Z" fill-rule="nonzero"/><path fill="#000000" fill-opacity="0.0" clip-path="url(#id_0)" d="M441.1279 251.09534C441.1279 252.75218 439.78476 254.09534 438.1279 254.09534C436.47104 254.09534 435.1279 252.75218 435.1279 251.09534C435.1279 249.43848 436.47104 248.09534 438.1279 248.09534C439.78476 248.09534 441.1279 249.43848 441.1279 251.09534Z" fill-rule="nonzero"/><path fill="#000000" fill-opacity="0.0" clip-path="url(#id_0)" d="M447.3593 284.75934C447.3593 286.4162 446.01614 287.75934 444.3593 287.75934C442.70245 287.75934 441.3593 286.4162 441.3593 284.75934C441.3593 283.10248 442.70245 281.75934 444.3593 281.75934C446.01614 281.75934 447.3593 283.10248 447.3593 284.75934Z" fill-rule="nonzero"/><path fill="#000000" fill-opacity="0.0" clip-path="url(#id_0)" d="M453.5907 245.48466C453.5907 247.14153 452.24756 248.48466 450.5907 248.48466C448.93384 248.48466 447.5907 247.14153 447.5907 245.48466C447.5907 243.82782 448.93384 242.48466 450.5907 242.48466C452.24756 242.48466 453.5907 243.82782 453.5907 245.48466Z" fill-rule="nonzero"/><path fill="#000000" fill-opacity="0.0" clip-path="url(#id_0)" d="M459.82208 290.37C459.82208 292.02686 458.47894 293.37 456.82208 293.37C455.16525 293.37 453.82208 292.02686 453.82208 290.37C453.82208 288.71313 455.16525 287.37 456.82208 287.37C458.47894 287.37 459.82208 288.71313 459.82208 290.37Z" fill-rule="nonzero"/><path fill="#000000" fill-opacity="0.0" clip-path="url(#id_0)" d="M466.0535 245.48466C466.0535 247.14153 464.71036 248.48466 463.0535 248.48466C461.39664 248.48466 460.0535 247.14153 460.0535 245.48466C460.0535 243.82782 461.39664 242.48466 463.0535 242.48466C464.71036 242.48466 466.0535 243.82782 466.0535 245.48466Z" fill-rule="nonzero"/><path fill="#000000" fill-opacity="0.0" clip-path="url(#id_0)" d="M472.28488 270.73267C472.28488 272.38953 470.94174 273.73267 469.28488 273.73267C467.62802 273.73267 466.28488 272.38953 466.28488 270.73267C466.28488 269.0758 467.62802 267.73267 469.28488 267.73267C470.94174 267.73267 472.28488 269.0758 472.28488 270.73267Z" fill-rule="nonzero"/><path fill="#000000" fill-opacity="0.0" clip-path="url(#id_0)" d="M478.51627 251.09534C478.51627 252.75218 477.17313 254.09534 475.51627 254.09534C473.85944 254.09534 472.51627 252.75218 472.51627 251.09534C472.51627 249.43848 473.85944 248.09534 475.51627 248.09534C477.17313 248.09534 478.51627 249.43848 478.51627 251.09534Z" fill-rule="nonzero"/><path fill="#000000" fill-opacity="0.0" clip-path="url(#id_0)" d="M484.74768 273.538C484.74768 275.19485 483.40454 276.538 481.74768 276.538C480.09082 276.538 478.74768 275.19485 478.74768 273.538C478.74768 271.88113 480.09082 270.538 481.74768 270.538C483.40454 270.538 484.74768 271.88113 484.74768 273.538Z" fill-rule="nonzero"/><path fill="#000000" fill-opacity="0.0" clip-path="url(#id_0)" d="M490.97906 239.874C490.97906 241.53085 489.63593 242.874 487.97906 242.874C486.3222 242.874 484.97906 241.53085 484.97906 239.874C484.97906 238.21715 486.3222 236.874 487.97906 236.874C489.63593 236.874 490.97906 238.21715 490.97906 239.874Z" fill-rule="nonzero"/><path fill="#000000" fill-opacity="0.0" clip-path="url(#id_0)" d="M497.21048 259.51132C497.21048 261.16818 495.8673 262.51132 494.21048 262.51132C492.55362 262.51132 491.21048 261.16818 491.21048 259.51132C491.21048 257.8545 492.55362 256.51132 494.21048 256.51132C495.8673 256.51132 497.21048 257.8545 497.21048 259.51132Z" fill-rule="nonzero"/><path fill="#000000" fill-opacity="0.0" clip-path="url(#id_0)" d="M503.44186 256.706C503.44186 258.36285 502.09872 259.706 500.44186 259.706C498.785 259.706 497.44186 258.36285 497.44186 256.706C497.44186 255.04915 498.785 253.706 500.44186 253.706C502.09872 253.706 503.44186 255.04915 503.44186 256.706Z" fill-rule="nonzero"/><path fill="#000000" fill-opacity="0.0" clip-path="url(#id_0)" d="M509.67325 262.31668C509.67325 263.9735 508.3301 265.31668 506.67325 265.31668C505.0164 265.31668 503.67325 263.9735 503.67325 262.31668C503.67325 260.65982 505.0164 259.31668 506.67325 259.31668C508.3301 259.31668 509.67325 260.65982 509.67325 262.31668Z" fill-rule="nonzero"/><path fill="#000000" fill-opacity="0.0" clip-path="url(#id_0)" d="M515.90466 276.34332C515.90466 278.00018 514.5615 279.34332 512.90466 279.34332C511.2478 279.34332 509.90466 278.00018 509.90466 276.34332C509.90466 274.6865 511.2478 273.34332 512.90466 273.34332C514.5615 273.34332 515.90466 274.6865 515.90466 276.34332Z" fill-rule="nonzero"/><path fill="#000000" fill-opacity="0.0" clip-path="url(#id_0)" d="M528.36743 273.538C528.36743 275.19485 527.0243 276.538 525.36743 276.538C523.7106 276.538 522.36743 275.19485 522.36743 273.538C522.36743 271.88113 523.7106 270.538 525.36743 270.538C527.0243 270.538 528.36743 271.88113 528.36743 273.538Z" fill-rule="nonzero"/><path fill="#000000" fill-opacity="0.0" clip-path="url(#id_0)" d="M534.5988 242.67934C534.5988 244.33618 533.2557 245.67934 531.5988 245.67934C529.94196 245.67934 528.5988 244.33618 528.5988 242.67934C528.5988 241.02248 529.94196 239.67934 531.5988 239.67934C533.2557 239.67934 534.5988 241.02248 534.5988 242.67934Z" fill-rule="nonzero"/><path fill="#000000" fill-opacity="0.0" clip-path="url(#id_0)" d="M540.83026 262.31668C540.83026 263.9735 539.48706 265.31668 537.83026 265.31668C536.1734 265.31668 534.83026 263.9735 534.83026 262.31668C534.83026 260.65982 536.1734 259.31668 537.83026 259.31668C539.48706 259.31668 540.83026 260.65982 540.83026 262.31668Z" fill-rule="nonzero"/><path fill="#000000" fill-opacity="0.0" clip-path="url(#id_0)" d="M547.06165 265.122C547.06165 266.77884 545.7185 268.122 544.06165 268.122C542.4048 268.122 541.06165 266.77884 541.06165 265.122C541.06165 263.46515 542.4048 262.122 544.06165 262.122C545.7185 262.122 547.06165 263.46515 547.06165 265.122Z" fill-rule="nonzero"/><path fill="#000000" fill-opacity="0.0" clip-path="url(#id_0)" d="M553.293 287.56467C553.293 289.22153 551.9499 290.56467 550.293 290.56467C548.63617 290.56467 547.293 289.22153 547.293 287.56467C547.293 285.9078 548.63617 284.56467 550.293 284.56467C551.9499 284.56467 553.293 285.9078 553.293 287.56467Z" fill-rule="nonzero"/><path fill="#000000" fill-opacity="0.0" clip-path="url(#id_0)" d="M559.5244 270.73267C559.5244 272.38953 558.1813 273.73267 556.5244 273.73267C554.86755 273.73267 553.5244 272.38953 553.5244 270.73267C553.5244 269.0758 554.86755 267.73267 556.5244 267.73267C558.1813 267.73267 559.5244 269.0758 559.5244 270.73267Z" fill-rule="nonzero"/><path fill="#000000" fill-opacity="0.0" clip-path="url(#id_0)" d="M565.7558 281.954C565.7558 283.61084 564.41266 284.954 562.7558 284.954C561.09894 284.954 559.7558 283.61084 559.7558 281.954C559.7558 280.29715 561.09894 278.954 562.7558 278.954C564.41266 278.954 565.7558 280.29715 565.7558 281.954Z" fill-rule="nonzero"/><path fill="#000000" fill-opacity="0.0" clip-path="url(#id_0)" d="M571.9872 293.17532C571.9872 294.83218 570.64404 296.17532 568.9872 296.17532C567.3304 296.17532 565.9872 294.83218 565.9872 293.17532C565.9872 291.5185 567.3304 290.17532 568.9872 290.17532C570.64404 290.17532 571.9872 291.5185 571.9872 293.17532Z" fill-rule="nonzero"/><path fill="#000000" fill-opacity="0.0" clip-path="url(#id_0)" d="M578.2186 273.538C578.2186 275.19485 576.8755 276.538 575.2186 276.538C573.56177 276.538 572.2186 275.19485 572.2186 273.538C572.2186 271.88113 573.56177 270.538 575.2186 270.538C576.8755 270.538 578.2186 271.88113 578.2186 273.538Z" fill-rule="nonzero"/><path fill="#000000" fill-opacity="0.0" clip-path="url(#id_0)" d="M584.45 332.45C584.45 334.10684 583.1069 335.45 581.45 335.45C579.79315 335.45 578.45 334.10684 578.45 332.45C578.45 330.79315 579.79315 329.45 581.45 329.45C583.1069 329.45 584.45 330.79315 584.45 332.45Z" fill-rule="nonzero"/><path fill="#000000" d="M33.05 332.21564Q33.05 330.6844 33.3625 329.7625Q33.675 328.825 34.284374 328.325Q34.909374 327.825 35.846874 327.825Q36.534374 327.825 37.05 328.10626Q37.58125 328.3875 37.925 328.91876Q38.26875 329.4344 38.45625 330.1844Q38.64375 330.9344 38.64375 332.21564Q38.64375 333.73126 38.33125 334.65314Q38.034374 335.575 37.409374 336.09064Q36.8 336.59064 35.846874 336.59064Q34.6125 336.59064 33.89375 335.7Q33.05 334.6375 33.05 332.21564ZM34.128124 332.21564Q34.128124 334.325 34.628124 335.02814Q35.128124 335.73126 35.846874 335.73126Q36.58125 335.73126 37.065624 335.02814Q37.565624 334.325 37.565624 332.21564Q37.565624 330.09064 37.065624 329.40314Q36.58125 328.7 35.83125 328.7Q35.1125 328.7 34.675 329.3094Q34.128124 330.09064 34.128124 332.21564Z" fill-rule="nonzero"/><path fill="#000000" d="M31.596874 265.30106L31.596874 266.31668L25.909374 266.31668Q25.909374 265.94168 26.034374 265.5823Q26.253124 265.00418 26.721874 264.44168Q27.20625 263.87918 28.1125 263.1448Q29.51875 261.98856 30.003124 261.31668Q30.503124 260.6448 30.503124 260.05106Q30.503124 259.42606 30.05 259.00418Q29.596874 258.56668 28.878124 258.56668Q28.1125 258.56668 27.659374 259.0198Q27.20625 259.47293 27.190624 260.28543L26.1125 260.17606Q26.221874 258.9573 26.940624 258.3323Q27.675 257.69168 28.909374 257.69168Q30.14375 257.69168 30.8625 258.37918Q31.58125 259.06668 31.58125 260.0823Q31.58125 260.59793 31.3625 261.09793Q31.159374 261.5823 30.659374 262.1448Q30.175 262.69168 29.05 263.6448Q28.096874 264.44168 27.815624 264.73856Q27.55 265.0198 27.378124 265.30106L31.596874 265.30106ZM33.05 264.06668L34.159374 263.97293Q34.284374 264.78543 34.721874 265.19168Q35.175 265.59793 35.815624 265.59793Q36.565624 265.59793 37.096874 265.0198Q37.628124 264.44168 37.628124 263.50418Q37.628124 262.59793 37.1125 262.0823Q36.6125 261.55106 35.784374 261.55106Q35.284374 261.55106 34.8625 261.78543Q34.45625 262.0198 34.221874 262.37918L33.2375 262.25418L34.065624 257.84793L38.346874 257.84793L38.346874 258.84793L34.909374 258.84793L34.45625 261.16043Q35.221874 260.61356 36.065624 260.61356Q37.190624 260.61356 37.95625 261.3948Q38.7375 262.17606 38.7375 263.41043Q38.7375 264.56668 38.065624 265.42606Q37.2375 266.4573 35.815624 266.4573Q34.64375 266.4573 33.89375 265.80106Q33.159374 265.1448 33.05 264.06668Z" fill-rule="nonzero"/><path fill="#000000" d="M26.05 193.93333L27.159374 193.83958Q27.284374 194.65208 27.721874 195.05833Q28.175 195.46458 28.815624 195.46458Q29.565624 195.46458 30.096874 194.88646Q30.628124 194.30833 30.628124 193.37083Q30.628124 192.46458 30.1125 191.94896Q29.6125 191.41771 28.784374 191.41771Q28.284374 191.41771 27.8625 191.65208Q27.45625 191.88646 27.221874 192.24583L26.2375 192.12083L27.065624 187.71458L31.346874 187.71458L31.346874 188.71458L27.909374 188.71458L27.45625 191.02708Q28.221874 190.48021 29.065624 190.48021Q30.190624 190.48021 30.95625 191.26146Q31.7375 192.04271 31.7375 193.27708Q31.7375 194.43333 31.065624 195.29271Q30.2375 196.32396 28.815624 196.32396Q27.64375 196.32396 26.89375 195.66771Q26.159374 195.01146 26.05 193.93333ZM33.05 191.94896Q33.05 190.41771 33.3625 189.49583Q33.675 188.55833 34.284374 188.05833Q34.909374 187.55833 35.846874 187.55833Q36.534374 187.55833 37.05 187.83958Q37.58125 188.12083 37.925 188.65208Q38.26875 189.16771 38.45625 189.91771Q38.64375 190.66771 38.64375 191.94896Q38.64375 193.46458 38.33125 194.38646Q38.034374 195.30833 37.409374 195.82396Q36.8 196.32396 35.846874 196.32396Q34.6125 196.32396 33.89375 195.43333Q33.05 194.37083 33.05 191.94896ZM34.128124 191.94896Q34.128124 194.05833 34.628124 194.76146Q35.128124 195.46458 35.846874 195.46458Q36.58125 195.46458 37.065624 194.76146Q37.565624 194.05833 37.565624 191.94896Q37.565624 189.82396 37.065624 189.13646Q36.58125 188.43333 35.83125 188.43333Q35.1125 188.43333 34.675 189.04271Q34.128124 189.82396 34.128124 191.94896Z" fill-rule="nonzero"/><path fill="#000000" d="M26.1125 118.58125L26.1125 117.56563L31.675 117.56563L31.675 118.39375Q30.8625 119.26875 30.05 120.72188Q29.253124 122.15938 28.815624 123.69063Q28.4875 124.76875 28.409374 126.05L27.315624 126.05Q27.33125 125.03438 27.70625 123.59688Q28.096874 122.15938 28.8 120.83125Q29.51875 119.50313 30.33125 118.58125L26.1125 118.58125ZM33.05 123.8L34.159374 123.70625Q34.284374 124.51875 34.721874 124.925Q35.175 125.33125 35.815624 125.33125Q36.565624 125.33125 37.096874 124.75313Q37.628124 124.175 37.628124 123.2375Q37.628124 122.33125 37.1125 121.81563Q36.6125 121.28438 35.784374 121.28438Q35.284374 121.28438 34.8625 121.51875Q34.45625 121.75313 34.221874 122.1125L33.2375 121.9875L34.065624 117.58125L38.346874 117.58125L38.346874 118.58125L34.909374 118.58125L34.45625 120.89375Q35.221874 120.34688 36.065624 120.34688Q37.190624 120.34688 37.95625 121.12813Q38.7375 121.90938 38.7375 123.14375Q38.7375 124.3 38.065624 125.15938Q37.2375 126.19063 35.815624 126.19063Q34.64375 126.19063 33.89375 125.53438Q33.159374 124.87813 33.05 123.8Z" fill-rule="nonzero"/><path fill="#000000" d="M23.01875 55.916668L21.971874 55.916668L21.971874 49.197918Q21.58125 49.557293 20.95625 49.932293Q20.346874 50.291668 19.8625 50.463543L19.8625 49.447918Q20.7375 49.026043 21.39375 48.447918Q22.065624 47.854168 22.346874 47.291668L23.01875 47.291668L23.01875 55.916668ZM26.05 51.682293Q26.05 50.151043 26.3625 49.229168Q26.675 48.291668 27.284374 47.791668Q27.909374 47.291668 28.846874 47.291668Q29.534374 47.291668 30.05 47.572918Q30.58125 47.854168 30.925 48.385418Q31.26875 48.901043 31.45625 49.651043Q31.64375 50.401043 31.64375 51.682293Q31.64375 53.197918 31.33125 54.119793Q31.034374 55.041668 30.409374 55.557293Q29.8 56.057293 28.846874 56.057293Q27.6125 56.057293 26.89375 55.166668Q26.05 54.104168 26.05 51.682293ZM27.128124 51.682293Q27.128124 53.791668 27.628124 54.494793Q28.128124 55.197918 28.846874 55.197918Q29.58125 55.197918 30.065624 54.494793Q30.565624 53.791668 30.565624 51.682293Q30.565624 49.557293 30.065624 48.869793Q29.58125 48.166668 28.83125 48.166668Q28.1125 48.166668 27.675 48.776043Q27.128124 49.557293 27.128124 51.682293ZM33.05 51.682293Q33.05 50.151043 33.3625 49.229168Q33.675 48.291668 34.284374 47.791668Q34.909374 47.291668 35.846874 47.291668Q36.534374 47.291668 37.05 47.572918Q37.58125 47.854168 37.925 48.385418Q38.26875 48.901043 38.45625 49.651043Q38.64375 50.401043 38.64375 51.682293Q38.64375 53.197918 38.33125 54.119793Q38.034374 55.041668 37.409374 55.557293Q36.8 56.057293 35.846874 56.057293Q34.6125 56.057293 33.89375 55.166668Q33.05 54.104168 33.05 51.682293ZM34.128124 51.682293Q34.128124 53.791668 34.628124 54.494793Q35.128124 55.197918 35.846874 55.197918Q36.58125 55.197918 37.065624 54.494793Q37.565624 53.791668 37.565624 51.682293Q37.565624 49.557293 37.065624 48.869793Q36.58125 48.166668 35.83125 48.166668Q35.1125 48.166668 34.675 48.776043Q34.128124 49.557293 34.128124 51.682293Z" fill-rule="nonzero"/><path fill="#000000" d="M73.40712 349.45L72.360245 349.45L72.360245 342.73126Q71.96962 343.09064 71.34462 343.46564Q70.735245 343.825 70.25087 343.9969L70.25087 342.98126Q71.12587 342.5594 71.78212 341.98126Q72.453995 341.3875 72.735245 340.825L73.40712 340.825L73.40712 349.45ZM76.59462 347.46564L77.610245 347.3719Q77.735245 348.09064 78.09462 348.41876Q78.46962 348.73126 79.03212 348.73126Q79.516495 348.73126 79.87587 348.5125Q80.25087 348.27814 80.485245 347.91876Q80.71962 347.54376 80.87587 346.91876Q81.03212 346.27814 81.03212 345.6219Q81.03212 345.54376 81.03212 345.40314Q80.71962 345.90314 80.172745 346.23126Q79.62587 346.54376 78.985245 346.54376Q77.90712 346.54376 77.172745 345.77814Q76.43837 344.9969 76.43837 343.73126Q76.43837 342.41876 77.203995 341.6219Q77.985245 340.825 79.141495 340.825Q79.96962 340.825 80.65712 341.27814Q81.360245 341.73126 81.71962 342.575Q82.078995 343.40314 82.078995 344.98126Q82.078995 346.6219 81.71962 347.60626Q81.37587 348.575 80.65712 349.09064Q79.953995 349.59064 79.016495 349.59064Q78.00087 349.59064 77.360245 349.04376Q76.71962 348.48126 76.59462 347.46564ZM80.90712 343.66876Q80.90712 342.7625 80.422745 342.23126Q79.953995 341.7 79.266495 341.7Q78.56337 341.7 78.03212 342.27814Q77.516495 342.84064 77.516495 343.7625Q77.516495 344.575 78.016495 345.09064Q78.516495 345.60626 79.235245 345.60626Q79.96962 345.60626 80.43837 345.09064Q80.90712 344.575 80.90712 343.66876ZM86.81337 349.45L86.81337 347.3875L83.09462 347.3875L83.09462 346.41876L87.016495 340.85626L87.87587 340.85626L87.87587 346.41876L89.03212 346.41876L89.03212 347.3875L87.87587 347.3875L87.87587 349.45L86.81337 349.45ZM86.81337 346.41876L86.81337 342.5594L84.12587 346.41876L86.81337 346.41876ZM90.43837 345.21564Q90.43837 343.6844 90.75087 342.7625Q91.06337 341.825 91.672745 341.325Q92.297745 340.825 93.235245 340.825Q93.922745 340.825 94.43837 341.10626Q94.96962 341.3875 95.31337 341.91876Q95.65712 342.4344 95.84462 343.1844Q96.03212 343.9344 96.03212 345.21564Q96.03212 346.73126 95.71962 347.65314Q95.422745 348.575 94.797745 349.09064Q94.18837 349.59064 93.235245 349.59064Q92.00087 349.59064 91.28212 348.7Q90.43837 347.6375 90.43837 345.21564ZM91.516495 345.21564Q91.516495 347.325 92.016495 348.02814Q92.516495 348.73126 93.235245 348.73126Q93.96962 348.73126 94.453995 348.02814Q94.953995 347.325 94.953995 345.21564Q94.953995 343.09064 94.453995 342.40314Q93.96962 341.7 93.21962 341.7Q92.50087 341.7 92.06337 342.3094Q91.516495 343.09064 91.516495 345.21564Z" fill-rule="nonzero"/><path fill="#000000" d="M198.03503 349.45L196.98816 349.45L196.98816 342.73126Q196.59753 343.09064 195.97253 343.46564Q195.36316 343.825 194.87878 343.9969L194.87878 342.98126Q195.75378 342.5594 196.41003 341.98126Q197.08191 341.3875 197.36316 340.825L198.03503 340.825L198.03503 349.45ZM201.22253 347.46564L202.23816 347.3719Q202.36316 348.09064 202.72253 348.41876Q203.09753 348.73126 203.66003 348.73126Q204.14441 348.73126 204.50378 348.5125Q204.87878 348.27814 205.11316 347.91876Q205.34753 347.54376 205.50378 346.91876Q205.66003 346.27814 205.66003 345.6219Q205.66003 345.54376 205.66003 345.40314Q205.34753 345.90314 204.80066 346.23126Q204.25378 346.54376 203.61316 346.54376Q202.53503 346.54376 201.80066 345.77814Q201.06628 344.9969 201.06628 343.73126Q201.06628 342.41876 201.83191 341.6219Q202.61316 340.825 203.76941 340.825Q204.59753 340.825 205.28503 341.27814Q205.98816 341.73126 206.34753 342.575Q206.70691 343.40314 206.70691 344.98126Q206.70691 346.6219 206.34753 347.60626Q206.00378 348.575 205.28503 349.09064Q204.58191 349.59064 203.64441 349.59064Q202.62878 349.59064 201.98816 349.04376Q201.34753 348.48126 201.22253 347.46564ZM205.53503 343.66876Q205.53503 342.7625 205.05066 342.23126Q204.58191 341.7 203.89441 341.7Q203.19128 341.7 202.66003 342.27814Q202.14441 342.84064 202.14441 343.7625Q202.14441 344.575 202.64441 345.09064Q203.14441 345.60626 203.86316 345.60626Q204.59753 345.60626 205.06628 345.09064Q205.53503 344.575 205.53503 343.66876ZM213.53503 342.96564L212.48816 343.04376Q212.34753 342.41876 212.09753 342.1375Q211.66003 341.6844 211.03503 341.6844Q210.53503 341.6844 210.14441 341.96564Q209.66003 342.34064 209.36316 343.04376Q209.08191 343.73126 209.06628 345.0125Q209.44128 344.4344 209.98816 344.15314Q210.55066 343.8719 211.16003 343.8719Q212.20691 343.8719 212.94128 344.65314Q213.69128 345.4344 213.69128 346.65314Q213.69128 347.46564 213.33191 348.16876Q212.98816 348.85626 212.37878 349.23126Q211.76941 349.59064 211.00378 349.59064Q209.67566 349.59064 208.84753 348.6219Q208.01941 347.65314 208.01941 345.4344Q208.01941 342.9344 208.94128 341.8094Q209.73816 340.825 211.09753 340.825Q212.11316 340.825 212.75378 341.40314Q213.41003 341.96564 213.53503 342.96564ZM209.23816 346.66876Q209.23816 347.21564 209.45691 347.71564Q209.69128 348.2 210.09753 348.46564Q210.51941 348.73126 210.98816 348.73126Q211.64441 348.73126 212.12878 348.2Q212.61316 347.65314 212.61316 346.73126Q212.61316 345.84064 212.12878 345.325Q211.66003 344.8094 210.94128 344.8094Q210.22253 344.8094 209.72253 345.325Q209.23816 345.84064 209.23816 346.66876ZM215.06628 345.21564Q215.06628 343.6844 215.37878 342.7625Q215.69128 341.825 216.30066 341.325Q216.92566 340.825 217.86316 340.825Q218.55066 340.825 219.06628 341.10626Q219.59753 341.3875 219.94128 341.91876Q220.28503 342.4344 220.47253 343.1844Q220.66003 343.9344 220.66003 345.21564Q220.66003 346.73126 220.34753 347.65314Q220.05066 348.575 219.42566 349.09064Q218.81628 349.59064 217.86316 349.59064Q216.62878 349.59064 215.91003 348.7Q215.06628 347.6375 215.06628 345.21564ZM216.14441 345.21564Q216.14441 347.325 216.64441 348.02814Q217.14441 348.73126 217.86316 348.73126Q218.59753 348.73126 219.08191 348.02814Q219.58191 347.325 219.58191 345.21564Q219.58191 343.09064 219.08191 342.40314Q218.59753 341.7 217.84753 341.7Q217.12878 341.7 216.69128 342.3094Q216.14441 343.09064 216.14441 345.21564Z" fill-rule="nonzero"/><path fill="#000000" d="M322.66293 349.45L321.61606 349.45L321.61606 342.73126Q321.22543 343.09064 320.60043 343.46564Q319.99106 343.825 319.50668 343.9969L319.50668 342.98126Q320.38168 342.5594 321.03793 341.98126Q321.7098 341.3875 321.99106 340.825L322.66293 340.825L322.66293 349.45ZM325.85043 347.46564L326.86606 347.3719Q326.99106 348.09064 327.35043 348.41876Q327.72543 348.73126 328.28793 348.73126Q328.7723 348.73126 329.13168 348.5125Q329.50668 348.27814 329.74106 347.91876Q329.97543 347.54376 330.13168 346.91876Q330.28793 346.27814 330.28793 345.6219Q330.28793 345.54376 330.28793 345.40314Q329.97543 345.90314 329.42856 346.23126Q328.88168 346.54376 328.24106 346.54376Q327.16293 346.54376 326.42856 345.77814Q325.69418 344.9969 325.69418 343.73126Q325.69418 342.41876 326.4598 341.6219Q327.24106 340.825 328.3973 340.825Q329.22543 340.825 329.91293 341.27814Q330.61606 341.73126 330.97543 342.575Q331.3348 343.40314 331.3348 344.98126Q331.3348 346.6219 330.97543 347.60626Q330.63168 348.575 329.91293 349.09064Q329.2098 349.59064 328.2723 349.59064Q327.25668 349.59064 326.61606 349.04376Q325.97543 348.48126 325.85043 347.46564ZM330.16293 343.66876Q330.16293 342.7625 329.67856 342.23126Q329.2098 341.7 328.5223 341.7Q327.81918 341.7 327.28793 342.27814Q326.7723 342.84064 326.7723 343.7625Q326.7723 344.575 327.2723 345.09064Q327.7723 345.60626 328.49106 345.60626Q329.22543 345.60626 329.69418 345.09064Q330.16293 344.575 330.16293 343.66876ZM334.31918 344.79376Q333.66293 344.54376 333.3348 344.10626Q333.0223 343.65314 333.0223 343.04376Q333.0223 342.10626 333.69418 341.46564Q334.38168 340.825 335.49106 340.825Q336.61606 340.825 337.30356 341.48126Q337.99106 342.1375 337.99106 343.075Q337.99106 343.66876 337.67856 344.10626Q337.36606 344.54376 336.72543 344.79376Q337.5223 345.04376 337.92856 345.6219Q338.3348 346.2 338.3348 346.9969Q338.3348 348.09064 337.55356 348.84064Q336.78793 349.59064 335.50668 349.59064Q334.24106 349.59064 333.4598 348.84064Q332.67856 348.09064 332.67856 346.96564Q332.67856 346.1219 333.10043 345.5594Q333.53793 344.9969 334.31918 344.79376ZM334.10043 342.9969Q334.10043 343.60626 334.49106 343.9969Q334.8973 344.3875 335.5223 344.3875Q336.13168 344.3875 336.5223 344.0125Q336.91293 343.6219 336.91293 343.0594Q336.91293 342.48126 336.50668 342.09064Q336.10043 341.6844 335.50668 341.6844Q334.8973 341.6844 334.49106 342.075Q334.10043 342.46564 334.10043 342.9969ZM333.7723 346.96564Q333.7723 347.41876 333.97543 347.84064Q334.19418 348.2625 334.61606 348.4969Q335.03793 348.73126 335.5223 348.73126Q336.2723 348.73126 336.75668 348.2469Q337.25668 347.7625 337.25668 347.0125Q337.25668 346.2469 336.75668 345.7469Q336.25668 345.2469 335.49106 345.2469Q334.74106 345.2469 334.25668 345.7469Q333.7723 346.23126 333.7723 346.96564ZM339.69418 345.21564Q339.69418 343.6844 340.00668 342.7625Q340.31918 341.825 340.92856 341.325Q341.55356 340.825 342.49106 340.825Q343.17856 340.825 343.69418 341.10626Q344.22543 341.3875 344.56918 341.91876Q344.91293 342.4344 345.10043 343.1844Q345.28793 343.9344 345.28793 345.21564Q345.28793 346.73126 344.97543 347.65314Q344.67856 348.575 344.05356 349.09064Q343.44418 349.59064 342.49106 349.59064Q341.25668 349.59064 340.53793 348.7Q339.69418 347.6375 339.69418 345.21564ZM340.7723 345.21564Q340.7723 347.325 341.2723 348.02814Q341.7723 348.73126 342.49106 348.73126Q343.22543 348.73126 343.7098 348.02814Q344.2098 347.325 344.2098 345.21564Q344.2098 343.09064 343.7098 342.40314Q343.22543 341.7 342.47543 341.7Q341.75668 341.7 341.31918 342.3094Q340.7723 343.09064 340.7723 345.21564Z" fill-rule="nonzero"/><path fill="#000000" d="M448.86896 348.4344L448.86896 349.45L443.18146 349.45Q443.18146 349.075 443.30646 348.71564Q443.5252 348.1375 443.99396 347.575Q444.47833 347.0125 445.38458 346.27814Q446.79083 345.1219 447.2752 344.45Q447.7752 343.77814 447.7752 343.1844Q447.7752 342.5594 447.32208 342.1375Q446.86896 341.7 446.1502 341.7Q445.38458 341.7 444.93146 342.15314Q444.47833 342.60626 444.4627 343.41876L443.38458 343.3094Q443.49396 342.09064 444.2127 341.46564Q444.94708 340.825 446.18146 340.825Q447.41583 340.825 448.13458 341.5125Q448.85333 342.2 448.85333 343.21564Q448.85333 343.73126 448.63458 344.23126Q448.43146 344.71564 447.93146 345.27814Q447.44708 345.825 446.32208 346.77814Q445.36896 347.575 445.0877 347.8719Q444.82208 348.15314 444.6502 348.4344L448.86896 348.4344ZM450.32208 345.21564Q450.32208 343.6844 450.63458 342.7625Q450.94708 341.825 451.55646 341.325Q452.18146 340.825 453.11896 340.825Q453.80646 340.825 454.32208 341.10626Q454.85333 341.3875 455.19708 341.91876Q455.54083 342.4344 455.72833 343.1844Q455.91583 343.9344 455.91583 345.21564Q455.91583 346.73126 455.60333 347.65314Q455.30646 348.575 454.68146 349.09064Q454.07208 349.59064 453.11896 349.59064Q451.88458 349.59064 451.16583 348.7Q450.32208 347.6375 450.32208 345.21564ZM451.4002 345.21564Q451.4002 347.325 451.9002 348.02814Q452.4002 348.73126 453.11896 348.73126Q453.85333 348.73126 454.3377 348.02814Q454.8377 347.325 454.8377 345.21564Q454.8377 343.09064 454.3377 342.40314Q453.85333 341.7 453.10333 341.7Q452.38458 341.7 451.94708 342.3094Q451.4002 343.09064 451.4002 345.21564ZM457.32208 345.21564Q457.32208 343.6844 457.63458 342.7625Q457.94708 341.825 458.55646 341.325Q459.18146 340.825 460.11896 340.825Q460.80646 340.825 461.32208 341.10626Q461.85333 341.3875 462.19708 341.91876Q462.54083 342.4344 462.72833 343.1844Q462.91583 343.9344 462.91583 345.21564Q462.91583 346.73126 462.60333 347.65314Q462.30646 348.575 461.68146 349.09064Q461.07208 349.59064 460.11896 349.59064Q458.88458 349.59064 458.16583 348.7Q457.32208 347.6375 457.32208 345.21564ZM458.4002 345.21564Q458.4002 347.325 458.9002 348.02814Q459.4002 348.73126 460.11896 348.73126Q460.85333 348.73126 461.3377 348.02814Q461.8377 347.325 461.8377 345.21564Q461.8377 343.09064 461.3377 342.40314Q460.85333 341.7 460.10333 341.7Q459.38458 341.7 458.94708 342.3094Q458.4002 343.09064 458.4002 345.21564ZM464.32208 345.21564Q464.32208 343.6844 464.63458 342.7625Q464.94708 341.825 465.55646 341.325Q466.18146 340.825 467.11896 340.825Q467.80646 340.825 468.32208 341.10626Q468.85333 341.3875 469.19708 341.91876Q469.54083 342.4344 469.72833 343.1844Q469.91583 343.9344 469.91583 345.21564Q469.91583 346.73126 469.60333 347.65314Q469.30646 348.575 468.68146 349.09064Q468.07208 349.59064 467.11896 349.59064Q465.88458 349.59064 465.16583 348.7Q464.32208 347.6375 464.32208 345.21564ZM465.4002 345.21564Q465.4002 347.325 465.9002 348.02814Q466.4002 348.73126 467.11896 348.73126Q467.85333 348.73126 468.3377 348.02814Q468.8377 347.325 468.8377 345.21564Q468.8377 343.09064 468.3377 342.40314Q467.85333 341.7 467.10333 341.7Q466.38458 341.7 465.94708 342.3094Q465.4002 343.09064 465.4002 345.21564Z" fill-rule="nonzero"/><path fill="#000000" d="M573.4969 348.4344L573.4969 349.45L567.8094 349.45Q567.8094 349.075 567.9344 348.71564Q568.15314 348.1375 568.6219 347.575Q569.10626 347.0125 570.0125 346.27814Q571.41876 345.1219 571.90314 344.45Q572.40314 343.77814 572.40314 343.1844Q572.40314 342.5594 571.95 342.1375Q571.4969 341.7 570.77814 341.7Q570.0125 341.7 569.5594 342.15314Q569.10626 342.60626 569.09064 343.41876L568.0125 343.3094Q568.1219 342.09064 568.84064 341.46564Q569.575 340.825 570.8094 340.825Q572.04376 340.825 572.7625 341.5125Q573.48126 342.2 573.48126 343.21564Q573.48126 343.73126 573.2625 344.23126Q573.0594 344.71564 572.5594 345.27814Q572.075 345.825 570.95 346.77814Q569.9969 347.575 569.71564 347.8719Q569.45 348.15314 569.27814 348.4344L573.4969 348.4344ZM574.95 345.21564Q574.95 343.6844 575.2625 342.7625Q575.575 341.825 576.1844 341.325Q576.8094 340.825 577.7469 340.825Q578.4344 340.825 578.95 341.10626Q579.48126 341.3875 579.825 341.91876Q580.16876 342.4344 580.35626 343.1844Q580.54376 343.9344 580.54376 345.21564Q580.54376 346.73126 580.23126 347.65314Q579.9344 348.575 579.3094 349.09064Q578.7 349.59064 577.7469 349.59064Q576.5125 349.59064 575.79376 348.7Q574.95 347.6375 574.95 345.21564ZM576.02814 345.21564Q576.02814 347.325 576.52814 348.02814Q577.02814 348.73126 577.7469 348.73126Q578.48126 348.73126 578.96564 348.02814Q579.46564 347.325 579.46564 345.21564Q579.46564 343.09064 578.96564 342.40314Q578.48126 341.7 577.73126 341.7Q577.0125 341.7 576.575 342.3094Q576.02814 343.09064 576.02814 345.21564ZM587.4969 348.4344L587.4969 349.45L581.8094 349.45Q581.8094 349.075 581.9344 348.71564Q582.15314 348.1375 582.6219 347.575Q583.10626 347.0125 584.0125 346.27814Q585.41876 345.1219 585.90314 344.45Q586.40314 343.77814 586.40314 343.1844Q586.40314 342.5594 585.95 342.1375Q585.4969 341.7 584.77814 341.7Q584.0125 341.7 583.5594 342.15314Q583.10626 342.60626 583.09064 343.41876L582.0125 343.3094Q582.1219 342.09064 582.84064 341.46564Q583.575 340.825 584.8094 340.825Q586.04376 340.825 586.7625 341.5125Q587.48126 342.2 587.48126 343.21564Q587.48126 343.73126 587.2625 344.23126Q587.0594 344.71564 586.5594 345.27814Q586.075 345.825 584.95 346.77814Q583.9969 347.575 583.71564 347.8719Q583.45 348.15314 583.27814 348.4344L587.4969 348.4344ZM588.95 345.21564Q588.95 343.6844 589.2625 342.7625Q589.575 341.825 590.1844 341.325Q590.8094 340.825 591.7469 340.825Q592.4344 340.825 592.95 341.10626Q593.48126 341.3875 593.825 341.91876Q594.16876 342.4344 594.35626 343.1844Q594.54376 343.9344 594.54376 345.21564Q594.54376 346.73126 594.23126 347.65314Q593.9344 348.575 593.3094 349.09064Q592.7 349.59064 591.7469 349.59064Q590.5125 349.59064 589.79376 348.7Q588.95 347.6375 588.95 345.21564ZM590.02814 345.21564Q590.02814 347.325 590.52814 348.02814Q591.02814 348.73126 591.7469 348.73126Q592.48126 348.73126 592.96564 348.02814Q593.46564 347.325 593.46564 345.21564Q593.46564 343.09064 592.96564 342.40314Q592.48126 341.7 591.73126 341.7Q591.0125 341.7 590.575 342.3094Q590.02814 343.09064 590.02814 345.21564Z" fill-rule="nonzero"/><path fill="#4285f4" d="M244.0 20.55C244.0 19.997715 244.44771 19.55 245.0 19.55L255.0 19.55C255.55229 19.55 256.0 19.997715 256.0 20.55L256.0 30.55C256.0 31.102285 255.55229 31.55 255.0 31.55L245.0 31.55C244.44771 31.55 244.0 31.102285 244.0 30.55Z" fill-rule="nonzero"/><path fill="#1a1a1a" d="M270.5625 20.95625L271.70312 20.95625L271.70312 25.925Q271.70312 27.221874 271.40625 27.9875Q271.10938 28.7375 270.34375 29.221874Q269.57812 29.690624 268.34375 29.690624Q267.14062 29.690624 266.35938 29.284374Q265.59375 28.8625 265.26562 28.08125Q264.9375 27.284374 264.9375 25.925L264.9375 20.95625L266.07812 20.95625L266.07812 25.909374Q266.07812 27.034374 266.28125 27.565624Q266.5 28.096874 267.0 28.39375Q267.51562 28.675 268.25 28.675Q269.5 28.675 270.03125 28.1125Q270.5625 27.534374 270.5625 25.909374L270.5625 20.95625ZM273.54688 26.784374L274.60938 26.690624Q274.6875 27.346874 274.96875 27.753124Q275.25 28.159374 275.82812 28.425Q276.42188 28.675 277.15625 28.675Q277.79688 28.675 278.29688 28.4875Q278.79688 28.284374 279.03125 27.95625Q279.28125 27.6125 279.28125 27.221874Q279.28125 26.815624 279.04688 26.51875Q278.8125 26.20625 278.28125 26.003124Q277.92188 25.8625 276.73438 25.58125Q275.5625 25.3 275.09375 25.05Q274.46875 24.721874 274.17188 24.253124Q273.875 23.76875 273.875 23.175Q273.875 22.534374 274.23438 21.971874Q274.60938 21.39375 275.3125 21.1125Q276.03125 20.815624 276.89062 20.815624Q277.84375 20.815624 278.57812 21.128124Q279.3125 21.425 279.70312 22.034374Q280.09375 22.628124 280.125 23.378124L279.03125 23.45625Q278.9375 22.64375 278.42188 22.2375Q277.92188 21.815624 276.9375 21.815624Q275.90625 21.815624 275.4375 22.190624Q274.96875 22.565624 274.96875 23.096874Q274.96875 23.565624 275.29688 23.8625Q275.625 24.159374 277.0 24.471874Q278.39062 24.784374 278.90625 25.01875Q279.65625 25.378124 280.01562 25.909374Q280.375 26.425 280.375 27.128124Q280.375 27.815624 279.98438 28.425Q279.59375 29.01875 278.85938 29.3625Q278.125 29.690624 277.20312 29.690624Q276.03125 29.690624 275.23438 29.3625Q274.45312 29.01875 274.0 28.33125Q273.5625 27.64375 273.54688 26.784374ZM280.98438 29.55L284.28125 20.95625L285.5 20.95625L289.01562 29.55L287.73438 29.55L286.71875 26.940624L283.14062 26.940624L282.1875 29.55L280.98438 29.55ZM283.46875 26.01875L286.375 26.01875L285.48438 23.64375Q285.0625 22.565624 284.875 21.8625Q284.70312 22.690624 284.40625 23.503124L283.46875 26.01875Z" fill-rule="nonzero"/><path fill="#ea4335" d="M304.0 20.55C304.0 19.997715 304.44772 19.55 305.0 19.55L315.0 19.55C315.55228 19.55 316.0 19.997715 316.0 20.55L316.0 30.55C316.0 31.102285 315.55228 31.55 315.0 31.55L305.0 31.55C304.44772 31.55 304.0 31.102285 304.0 30.55Z" fill-rule="nonzero"/><path fill="#1a1a1a" d="M326.42188 29.55L324.14062 20.95625L325.3125 20.95625L326.625 26.596874Q326.82812 27.471874 326.98438 28.346874Q327.3125 26.971874 327.375 26.753124L329.0 20.95625L330.375 20.95625L331.60938 25.3Q332.0625 26.925 332.28125 28.346874Q332.4375 27.534374 332.70312 26.471874L334.04688 20.95625L335.1875 20.95625L332.84375 29.55L331.73438 29.55L329.9375 23.003124Q329.70312 22.190624 329.65625 22.003124Q329.53125 22.58125 329.40625 23.003124L327.59375 29.55L326.42188 29.55ZM335.40625 26.440624Q335.40625 24.70625 336.35938 23.878124Q337.15625 23.190624 338.3125 23.190624Q339.59375 23.190624 340.40625 24.034374Q341.23438 24.8625 341.23438 26.346874Q341.23438 27.55 340.875 28.2375Q340.51562 28.925 339.8125 29.315624Q339.125 29.690624 338.3125 29.690624Q337.01562 29.690624 336.20312 28.8625Q335.40625 28.01875 335.40625 26.440624ZM336.48438 26.440624Q336.48438 27.628124 337.0 28.221874Q337.53125 28.815624 338.3125 28.815624Q339.10938 28.815624 339.625 28.221874Q340.14062 27.628124 340.14062 26.409374Q340.14062 25.253124 339.60938 24.659374Q339.09375 24.065624 338.3125 24.065624Q337.53125 24.065624 337.0 24.659374Q336.48438 25.2375 336.48438 26.440624ZM342.78125 29.55L342.78125 23.33125L343.73438 23.33125L343.73438 24.26875Q344.09375 23.6125 344.39062 23.409374Q344.70312 23.190624 345.07812 23.190624Q345.60938 23.190624 346.15625 23.51875L345.79688 24.503124Q345.40625 24.26875 345.03125 24.26875Q344.67188 24.26875 344.39062 24.4875Q344.125 24.690624 344.01562 25.065624Q343.82812 25.628124 343.82812 26.284374L343.82812 29.55L342.78125 29.55ZM346.76562 29.55L346.76562 20.95625L347.82812 20.95625L347.82812 29.55L346.76562 29.55ZM353.82812 29.55L353.82812 28.76875Q353.23438 29.690624 352.09375 29.690624Q351.34375 29.690624 350.71875 29.284374Q350.09375 28.8625 349.75 28.128124Q349.40625 27.39375 349.40625 26.440624Q349.40625 25.51875 349.71875 24.753124Q350.03125 23.9875 350.65625 23.596874Q351.28125 23.190624 352.04688 23.190624Q352.60938 23.190624 353.04688 23.425Q353.48438 23.659374 353.76562 24.034374L353.76562 20.95625L354.8125 20.95625L354.8125 29.55L353.82812 29.55ZM350.5 26.440624Q350.5 27.64375 351.0 28.2375Q351.5 28.815624 352.1875 28.815624Q352.875 28.815624 353.35938 28.253124Q353.84375 27.690624 353.84375 26.534374Q353.84375 25.253124 353.34375 24.659374Q352.85938 24.065624 352.14062 24.065624Q351.4375 24.065624 350.96875 24.64375Q350.5 25.20625 350.5 26.440624Z" fill-rule="nonzero"/></svg>