<svg version="1.1" viewBox="0.0 0.0 600.0 371.0" fill="none" stroke="none" stroke-linecap="square" stroke-miterlimit="10" width="600" height="371" xmlns:xlink="http://www.w3.org/1999/xlink" xmlns="http://www.w3.org/2000/svg"><path fill="#ffffff" d="M0 0L600.0 0L600.0 371.0L0 371.0L0 0Z" fill-rule="nonzero"/><path fill="#ea4335" d="M171.20015 129.23792C197.78412 83.24434 246.8764 54.916668 300.0 54.916668L300.0 203.68333Z" fill-rule="nonzero"/><path fill="#4285f4" d="M300.0 54.916668C367.3393 54.916668 426.28134 100.15013 443.7022 165.197C461.12305 230.24387 432.67795 298.88138 374.3523 332.53696C316.02664 366.19257 242.36693 356.4725 194.76807 308.83923C147.1692 261.20593 137.5024 187.53923 171.20015 129.23792L300.0 203.68333Z" fill-rule="nonzero"/><path fill="#1a1a1a" d="M20.971874 76.772385L18.690624 68.178635L19.8625 68.178635L21.175 73.81926Q21.378124 74.69426 21.534374 75.56926Q21.8625 74.19426 21.925 73.97551L23.55 68.178635L24.925 68.178635L26.159374 72.522385Q26.6125 74.147385 26.83125 75.56926Q26.9875 74.75676 27.253124 73.69426L28.596874 68.178635L29.7375 68.178635L27.39375 76.772385L26.284374 76.772385L24.4875 70.22551Q24.253124 69.41301 24.20625 69.22551Q24.08125 69.803635 23.95625 70.22551L22.14375 76.772385L20.971874 76.772385ZM29.95625 73.66301Q29.95625 71.928635 30.909374 71.10051Q31.70625 70.41301 32.8625 70.41301Q34.14375 70.41301 34.95625 71.25676Q35.784374 72.084885 35.784374 73.56926Q35.784374 74.772385 35.425 75.459885Q35.065624 76.147385 34.3625 76.53801Q33.675 76.91301 32.8625 76.91301Q31.565624 76.91301 30.753124 76.084885Q29.95625 75.241135 29.95625 73.66301ZM31.034374 73.66301Q31.034374 74.85051 31.55 75.44426Q32.08125 76.03801 32.8625 76.03801Q33.659374 76.03801 34.175 75.44426Q34.690624 74.85051 34.690624 73.63176Q34.690624 72.47551 34.159374 71.88176Q33.64375 71.28801 32.8625 71.28801Q32.08125 71.28801 31.55 71.88176Q31.034374 72.459885 31.034374 73.66301ZM37.33125 76.772385L37.33125 70.553635L38.284374 70.553635L38.284374 71.491135Q38.64375 70.834885 38.940624 70.63176Q39.253124 70.41301 39.628124 70.41301Q40.159374 70.41301 40.70625 70.741135L40.346874 71.72551Q39.95625 71.491135 39.58125 71.491135Q39.221874 71.491135 38.940624 71.709885Q38.675 71.91301 38.565624 72.28801Q38.378124 72.85051 38.378124 73.50676L38.378124 76.772385L37.33125 76.772385ZM41.315624 76.772385L41.315624 68.178635L42.378124 68.178635L42.378124 76.772385L41.315624 76.772385ZM48.378124 76.772385L48.378124 75.991135Q47.784374 76.91301 46.64375 76.91301Q45.89375 76.91301 45.26875 76.50676Q44.64375 76.084885 44.3 75.35051Q43.95625 74.616135 43.95625 73.66301Q43.95625 72.741135 44.26875 71.97551Q44.58125 71.209885 45.20625 70.81926Q45.83125 70.41301 46.596874 70.41301Q47.159374 70.41301 47.596874 70.647385Q48.034374 70.88176 48.315624 71.25676L48.315624 68.178635L49.3625 68.178635L49.3625 76.772385L48.378124 76.772385ZM45.05 73.66301Q45.05 74.866135 45.55 75.459885Q46.05 76.03801 46.7375 76.03801Q47.425 76.03801 47.909374 75.47551Q48.39375 74.91301 48.39375 73.75676Q48.39375 72.47551 47.89375 71.88176Q47.409374 71.28801 46.690624 71.28801Q45.9875 71.28801 45.51875 71.866135Q45.05 72.428635 45.05 73.66301Z" fill-rule="nonzero"/><path fill="#9e9e9e" d="M23.01875 93.772385L21.971874 93.772385L21.971874 87.053635Q21.58125 87.41301 20.95625 87.78801Q20.346874 88.147385 19.8625 88.31926L19.8625 87.303635Q20.7375 86.88176 21.39375 86.303635Q22.065624 85.709885 22.346874 85.147385L23.01875 85.147385L23.01875 93.772385ZM31.51875 87.28801L30.471874 87.366135Q30.33125 86.741135 30.08125 86.459885Q29.64375 86.00676 29.01875 86.00676Q28.51875 86.00676 28.128124 86.28801Q27.64375 86.66301 27.346874 87.366135Q27.065624 88.053635 27.05 89.334885Q27.425 88.75676 27.971874 88.47551Q28.534374 88.19426 29.14375 88.19426Q30.190624 88.19426 30.925 88.97551Q31.675 89.75676 31.675 90.97551Q31.675 91.78801 31.315624 92.491135Q30.971874 93.178635 30.3625 93.553635Q29.753124 93.91301 28.9875 93.91301Q27.659374 93.91301 26.83125 92.94426Q26.003124 91.97551 26.003124 89.75676Q26.003124 87.25676 26.925 86.13176Q27.721874 85.147385 29.08125 85.147385Q30.096874 85.147385 30.7375 85.72551Q31.39375 86.28801 31.51875 87.28801ZM27.221874 90.991135Q27.221874 91.53801 27.440624 92.03801Q27.675 92.522385 28.08125 92.78801Q28.503124 93.053635 28.971874 93.053635Q29.628124 93.053635 30.1125 92.522385Q30.596874 91.97551 30.596874 91.053635Q30.596874 90.16301 30.1125 89.647385Q29.64375 89.13176 28.925 89.13176Q28.20625 89.13176 27.70625 89.647385Q27.221874 90.16301 27.221874 90.991135ZM33.6125 93.772385L33.6125 92.56926L34.815624 92.56926L34.815624 93.772385Q34.815624 94.428635 34.58125 94.834885Q34.346874 95.25676 33.846874 95.47551L33.55 95.022385Q33.878124 94.88176 34.034374 94.584885Q34.190624 94.303635 34.221874 93.772385L33.6125 93.772385ZM36.1125 86.303635L36.1125 85.28801L41.675 85.28801L41.675 86.116135Q40.8625 86.991135 40.05 88.44426Q39.253124 89.88176 38.815624 91.41301Q38.4875 92.491135 38.409374 93.772385L37.315624 93.772385Q37.33125 92.75676 37.70625 91.31926Q38.096874 89.88176 38.8 88.553635Q39.51875 87.22551 40.33125 86.303635L36.1125 86.303635ZM43.253124 87.241135Q43.253124 86.31926 43.70625 85.678635Q44.175 85.03801 45.05 85.03801Q45.8625 85.03801 46.39375 85.616135Q46.925 86.19426 46.925 87.303635Q46.925 88.397385 46.378124 88.991135Q45.846874 89.56926 45.065624 89.56926Q44.284374 89.56926 43.76875 88.991135Q43.253124 88.41301 43.253124 87.241135ZM45.08125 85.75676Q44.690624 85.75676 44.425 86.10051Q44.175 86.44426 44.175 87.35051Q44.175 88.178635 44.425 88.522385Q44.690624 88.85051 45.08125 88.85051Q45.4875 88.85051 45.7375 88.50676Q46.003124 88.16301 46.003124 87.272385Q46.003124 86.428635 45.7375 86.10051Q45.471874 85.75676 45.08125 85.75676ZM45.08125 94.084885L49.784374 85.03801L50.64375 85.03801L45.95625 94.084885L45.08125 94.084885ZM48.8 91.75676Q48.8 90.834885 49.253124 90.19426Q49.721874 89.553635 50.6125 89.553635Q51.425 89.553635 51.95625 90.13176Q52.4875 90.69426 52.4875 91.81926Q52.4875 92.91301 51.940624 93.50676Q51.409374 94.084885 50.6125 94.084885Q49.846874 94.084885 49.315624 93.50676Q48.8 92.928635 48.8 91.75676ZM50.64375 90.272385Q50.2375 90.272385 49.971874 90.616135Q49.721874 90.959885 49.721874 91.866135Q49.721874 92.678635 49.9875 93.022385Q50.253124 93.366135 50.64375 93.366135Q51.034374 93.366135 51.3 93.022385Q51.565624 92.678635 51.565624 91.772385Q51.565624 90.94426 51.3 90.616135Q51.034374 90.272385 50.64375 90.272385Z" fill-rule="nonzero"/><path stroke="#757575" stroke-width="1.0" stroke-linecap="butt" d="M18.55 81.272385L145.23334 81.272385L229.36533 81.272385" fill-rule="nonzero"/><path fill="#9e9e9e" d="M231.36533 81.272385C231.36533 80.167816 230.4699 79.272385 229.36533 79.272385C228.26076 79.272385 227.36533 80.167816 227.36533 81.272385C227.36533 82.37695 228.26076 83.272385 229.36533 83.272385C230.4699 83.272385 231.36533 82.37695 231.36533 81.272385" fill-rule="nonzero"/><path fill="#1a1a1a" d="M564.0125 313.00052L565.15314 313.00052L565.15314 317.96927Q565.15314 319.26614 564.85626 320.03177Q564.5594 320.78177 563.79376 321.26614Q563.02814 321.7349 561.79376 321.7349Q560.59064 321.7349 559.8094 321.32864Q559.04376 320.90677 558.71564 320.12552Q558.3875 319.32864 558.3875 317.96927L558.3875 313.00052L559.52814 313.00052L559.52814 317.95364Q559.52814 319.07864 559.73126 319.6099Q559.95 320.14114 560.45 320.43802Q560.96564 320.71927 561.7 320.71927Q562.95 320.71927 563.48126 320.15677Q564.0125 319.57864 564.0125 317.95364L564.0125 313.00052ZM566.9969 318.82864L568.0594 318.7349Q568.1375 319.39114 568.41876 319.7974Q568.7 320.20364 569.27814 320.46927Q569.8719 320.71927 570.60626 320.71927Q571.2469 320.71927 571.7469 320.53177Q572.2469 320.32864 572.48126 320.00052Q572.73126 319.65677 572.73126 319.26614Q572.73126 318.8599 572.4969 318.56302Q572.2625 318.25052 571.73126 318.0474Q571.3719 317.90677 570.1844 317.62552Q569.0125 317.34427 568.54376 317.09427Q567.91876 316.76614 567.6219 316.2974Q567.325 315.81302 567.325 315.21927Q567.325 314.57864 567.6844 314.01614Q568.0594 313.43802 568.7625 313.15677Q569.48126 312.8599 570.34064 312.8599Q571.29376 312.8599 572.02814 313.1724Q572.7625 313.46927 573.15314 314.07864Q573.54376 314.6724 573.575 315.4224L572.48126 315.50052Q572.3875 314.68802 571.8719 314.28177Q571.3719 313.8599 570.3875 313.8599Q569.35626 313.8599 568.8875 314.2349Q568.41876 314.6099 568.41876 315.14114Q568.41876 315.6099 568.7469 315.90677Q569.075 316.20364 570.45 316.51614Q571.84064 316.82864 572.35626 317.06302Q573.10626 317.4224 573.46564 317.95364Q573.825 318.46927 573.825 319.1724Q573.825 319.8599 573.4344 320.46927Q573.04376 321.06302 572.3094 321.40677Q571.575 321.7349 570.65314 321.7349Q569.48126 321.7349 568.6844 321.40677Q567.90314 321.06302 567.45 320.37552Q567.0125 319.68802 566.9969 318.82864ZM574.4344 321.59427L577.73126 313.00052L578.95 313.00052L582.46564 321.59427L581.1844 321.59427L580.16876 318.9849L576.59064 318.9849L575.6375 321.59427L574.4344 321.59427ZM576.91876 318.06302L579.825 318.06302L578.9344 315.68802Q578.5125 314.6099 578.325 313.90677Q578.15314 314.7349 577.85626 315.5474L576.91876 318.06302Z" fill-rule="nonzero"/><path fill="#9e9e9e" d="M548.575 333.93802Q547.91876 333.68802 547.59064 333.25052Q547.27814 332.7974 547.27814 332.18802Q547.27814 331.25052 547.95 330.6099Q548.6375 329.96927 549.7469 329.96927Q550.8719 329.96927 551.5594 330.62552Q552.2469 331.28177 552.2469 332.21927Q552.2469 332.81302 551.9344 333.25052Q551.6219 333.68802 550.98126 333.93802Q551.77814 334.18802 552.1844 334.76614Q552.59064 335.34427 552.59064 336.14114Q552.59064 337.2349 551.8094 337.9849Q551.04376 338.7349 549.7625 338.7349Q548.4969 338.7349 547.71564 337.9849Q546.9344 337.2349 546.9344 336.1099Q546.9344 335.26614 547.35626 334.70364Q547.79376 334.14114 548.575 333.93802ZM548.35626 332.14114Q548.35626 332.75052 548.7469 333.14114Q549.15314 333.53177 549.77814 333.53177Q550.3875 333.53177 550.77814 333.15677Q551.16876 332.76614 551.16876 332.20364Q551.16876 331.62552 550.7625 331.2349Q550.35626 330.82864 549.7625 330.82864Q549.15314 330.82864 548.7469 331.21927Q548.35626 331.6099 548.35626 332.14114ZM548.02814 336.1099Q548.02814 336.56302 548.23126 336.9849Q548.45 337.40677 548.8719 337.64114Q549.29376 337.87552 549.77814 337.87552Q550.52814 337.87552 551.0125 337.39114Q551.5125 336.90677 551.5125 336.15677Q551.5125 335.39114 551.0125 334.89114Q550.5125 334.39114 549.7469 334.39114Q548.9969 334.39114 548.5125 334.89114Q548.02814 335.37552 548.02814 336.1099ZM553.95 336.32864L555.0125 336.18802Q555.1844 337.07864 555.6219 337.4849Q556.0594 337.87552 556.6844 337.87552Q557.4344 337.87552 557.95 337.3599Q558.46564 336.84427 558.46564 336.07864Q558.46564 335.3599 557.98126 334.89114Q557.5125 334.40677 556.77814 334.40677Q556.48126 334.40677 556.02814 334.53177L556.15314 333.59427Q556.2625 333.6099 556.325 333.6099Q556.9969 333.6099 557.52814 333.26614Q558.075 332.90677 558.075 332.1724Q558.075 331.59427 557.6844 331.21927Q557.29376 330.82864 556.66876 330.82864Q556.0594 330.82864 555.6375 331.21927Q555.23126 331.6099 555.1219 332.37552L554.0594 332.18802Q554.2469 331.14114 554.9344 330.56302Q555.6219 329.96927 556.6375 329.96927Q557.34064 329.96927 557.9344 330.28177Q558.52814 330.57864 558.84064 331.09427Q559.15314 331.6099 559.15314 332.20364Q559.15314 332.75052 558.85626 333.21927Q558.5594 333.6724 557.98126 333.93802Q558.73126 334.1099 559.15314 334.6724Q559.575 335.21927 559.575 336.06302Q559.575 337.18802 558.7469 337.96927Q557.9344 338.75052 556.6844 338.75052Q555.5594 338.75052 554.8094 338.07864Q554.0594 337.39114 553.95 336.32864ZM561.5125 338.59427L561.5125 337.39114L562.71564 337.39114L562.71564 338.59427Q562.71564 339.25052 562.48126 339.65677Q562.2469 340.07864 561.7469 340.2974L561.45 339.84427Q561.77814 339.70364 561.9344 339.40677Q562.09064 339.12552 562.1219 338.59427L561.5125 338.59427ZM563.95 336.32864L565.0125 336.18802Q565.1844 337.07864 565.6219 337.4849Q566.0594 337.87552 566.6844 337.87552Q567.4344 337.87552 567.95 337.3599Q568.46564 336.84427 568.46564 336.07864Q568.46564 335.3599 567.98126 334.89114Q567.5125 334.40677 566.77814 334.40677Q566.48126 334.40677 566.02814 334.53177L566.15314 333.59427Q566.2625 333.6099 566.325 333.6099Q566.9969 333.6099 567.52814 333.26614Q568.075 332.90677 568.075 332.1724Q568.075 331.59427 567.6844 331.21927Q567.29376 330.82864 566.66876 330.82864Q566.0594 330.82864 565.6375 331.21927Q565.23126 331.6099 565.1219 332.37552L564.0594 332.18802Q564.2469 331.14114 564.9344 330.56302Q565.6219 329.96927 566.6375 329.96927Q567.34064 329.96927 567.9344 330.28177Q568.52814 330.57864 568.84064 331.09427Q569.15314 331.6099 569.15314 332.20364Q569.15314 332.75052 568.85626 333.21927Q568.5594 333.6724 567.98126 333.93802Q568.73126 334.1099 569.15314 334.6724Q569.575 335.21927 569.575 336.06302Q569.575 337.18802 568.7469 337.96927Q567.9344 338.75052 566.6844 338.75052Q565.5594 338.75052 564.8094 338.07864Q564.0594 337.39114 563.95 336.32864ZM571.15314 332.06302Q571.15314 331.14114 571.60626 330.50052Q572.075 329.8599 572.95 329.8599Q573.7625 329.8599 574.29376 330.43802Q574.825 331.01614 574.825 332.12552Q574.825 333.21927 574.27814 333.81302Q573.7469 334.39114 572.96564 334.39114Q572.1844 334.39114 571.66876 333.81302Q571.15314 333.2349 571.15314 332.06302ZM572.98126 330.57864Q572.59064 330.57864 572.325 330.9224Q572.075 331.26614 572.075 332.1724Q572.075 333.00052 572.325 333.34427Q572.59064 333.6724 572.98126 333.6724Q573.3875 333.6724 573.6375 333.32864Q573.90314 332.9849 573.90314 332.09427Q573.90314 331.25052 573.6375 330.9224Q573.3719 330.57864 572.98126 330.57864ZM572.98126 338.90677L577.6844 329.8599L578.54376 329.8599L573.85626 338.90677L572.98126 338.90677ZM576.7 336.57864Q576.7 335.65677 577.15314 335.01614Q577.6219 334.37552 578.5125 334.37552Q579.325 334.37552 579.85626 334.95364Q580.3875 335.51614 580.3875 336.64114Q580.3875 337.7349 579.84064 338.32864Q579.3094 338.90677 578.5125 338.90677Q577.7469 338.90677 577.21564 338.32864Q576.7 337.75052 576.7 336.57864ZM578.54376 335.09427Q578.1375 335.09427 577.8719 335.43802Q577.6219 335.78177 577.6219 336.68802Q577.6219 337.50052 577.8875 337.84427Q578.15314 338.18802 578.54376 338.18802Q578.9344 338.18802 579.2 337.84427Q579.46564 337.50052 579.46564 336.59427Q579.46564 335.76614 579.2 335.43802Q578.9344 335.09427 578.54376 335.09427Z" fill-rule="nonzero"/><path stroke="#757575" stroke-width="1.0" stroke-linecap="butt" d="M581.45 326.09427L454.76666 326.09427L370.63467 326.09427" fill-rule="nonzero"/><path fill="#9e9e9e" d="M372.63467 326.09427C372.63467 324.98972 371.73923 324.09427 370.63467 324.09427C369.5301 324.09427 368.63467 324.98972 368.63467 326.09427C368.63467 327.19885 369.5301 328.09427 370.63467 328.09427C371.73923 328.09427 372.63467 327.19885 372.63467 326.09427" fill-rule="nonzero"/><path fill="#757575" d="M20.08125 37.55L20.08125 23.2375L22.01875 23.2375L29.534374 34.471874L29.534374 23.2375L31.346874 23.2375L31.346874 37.55L29.409374 37.55L21.89375 26.3L21.89375 37.55L20.08125 37.55ZM33.01875 37.55L33.01875 23.2375L38.39375 23.2375Q40.034374 23.2375 41.01875 23.675Q42.003124 24.096874 42.565624 25.003124Q43.128124 25.909374 43.128124 26.89375Q43.128124 27.815624 42.628124 28.628124Q42.14375 29.440624 41.128124 29.925Q42.425 30.315624 43.128124 31.2375Q43.83125 32.14375 43.83125 33.39375Q43.83125 34.409374 43.39375 35.26875Q42.971874 36.128124 42.346874 36.596874Q41.721874 37.065624 40.784374 37.315624Q39.846874 37.55 38.471874 37.55L33.01875 37.55ZM34.909374 29.253124L38.003124 29.253124Q39.26875 29.253124 39.815624 29.08125Q40.534374 28.8625 40.89375 28.378124Q41.26875 27.878124 41.26875 27.1125Q41.26875 26.409374 40.925 25.8625Q40.58125 25.315624 39.940624 25.128124Q39.315624 24.925 37.76875 24.925L34.909374 24.925L34.909374 29.253124ZM34.909374 35.8625L38.471874 35.8625Q39.39375 35.8625 39.76875 35.784374Q40.425 35.675 40.8625 35.409374Q41.3 35.128124 41.58125 34.6125Q41.8625 34.08125 41.8625 33.39375Q41.8625 32.596874 41.45625 32.003124Q41.05 31.409374 40.315624 31.175Q39.58125 30.940624 38.221874 30.940624L34.909374 30.940624L34.909374 35.8625ZM44.51875 37.55L50.01875 23.2375L52.065624 23.2375L57.925 37.55L55.76875 37.55L54.096874 33.20625L48.1125 33.20625L46.534374 37.55L44.51875 37.55ZM48.659374 31.675L53.503124 31.675L52.01875 27.70625Q51.33125 25.89375 51.003124 24.7375Q50.721874 26.1125 50.221874 27.471874L48.659374 31.675ZM65.09688 37.55L65.09688 23.2375L70.4875 23.2375Q71.925 23.2375 72.675 23.3625Q73.72188 23.55 74.44063 24.05Q75.15938 24.534374 75.58125 25.425Q76.01875 26.315624 76.01875 27.378124Q76.01875 29.20625 74.84688 30.471874Q73.69063 31.721874 70.65938 31.721874L66.9875 31.721874L66.9875 37.55L65.09688 37.55ZM66.9875 30.034374L70.69063 30.034374Q72.51875 30.034374 73.28438 29.3625Q74.06563 28.675 74.06563 27.425Q74.06563 26.534374 73.6125 25.89375Q73.15938 25.253124 72.425 25.05Q71.94063 24.925 70.64375 24.925L66.9875 24.925L66.9875 30.034374ZM77.83125 37.55L77.83125 23.2375L79.58125 23.2375L79.58125 37.55L77.83125 37.55ZM88.64375 36.26875Q87.65938 37.096874 86.75313 37.440624Q85.84688 37.784374 84.81563 37.784374Q83.1125 37.784374 82.19063 36.95625Q81.26875 36.1125 81.26875 34.815624Q81.26875 34.05 81.6125 33.425Q81.97188 32.8 82.53438 32.425Q83.09688 32.034374 83.8 31.83125Q84.31563 31.70625 85.3625 31.565624Q87.4875 31.315624 88.4875 30.971874Q88.50313 30.6125 88.50313 30.503124Q88.50313 29.440624 88.00313 28.9875Q87.33125 28.39375 86.00313 28.39375Q84.75313 28.39375 84.15938 28.83125Q83.58125 29.26875 83.3 30.378124L81.58125 30.14375Q81.81563 29.034374 82.34688 28.3625Q82.87813 27.675 83.89375 27.315624Q84.90938 26.940624 86.25313 26.940624Q87.58125 26.940624 88.40938 27.253124Q89.2375 27.565624 89.62813 28.05Q90.01875 28.51875 90.175 29.2375Q90.26875 29.690624 90.26875 30.8625L90.26875 33.20625Q90.26875 35.659374 90.37813 36.315624Q90.4875 36.95625 90.83125 37.55L88.9875 37.55Q88.72188 37.003124 88.64375 36.26875ZM88.4875 32.346874Q87.53438 32.7375 85.6125 33.003124Q84.53438 33.159374 84.08125 33.3625Q83.64375 33.55 83.39375 33.925Q83.14375 34.3 83.14375 34.76875Q83.14375 35.471874 83.675 35.940624Q84.20625 36.409374 85.2375 36.409374Q86.25313 36.409374 87.03438 35.971874Q87.83125 35.51875 88.20625 34.753124Q88.4875 34.14375 88.4875 32.9875L88.4875 32.346874ZM92.78438 41.55L92.59688 39.89375Q93.175 40.05 93.59688 40.05Q94.19063 40.05 94.53438 39.846874Q94.89375 39.659374 95.1125 39.315624Q95.28438 39.05 95.65938 38.003124Q95.70625 37.846874 95.81563 37.565624L91.87813 27.175L93.76875 27.175L95.925 33.190624Q96.34688 34.33125 96.675 35.58125Q96.9875 34.378124 97.39375 33.221874L99.6125 27.175L101.37813 27.175L97.425 37.721874Q96.8 39.440624 96.44063 40.08125Q95.97188 40.95625 95.3625 41.346874Q94.76875 41.753124 93.925 41.753124Q93.40938 41.753124 92.78438 41.55ZM109.97188 34.20625L111.78438 34.440624Q111.3625 36.01875 110.19063 36.909374Q109.03438 37.784374 107.22188 37.784374Q104.95625 37.784374 103.6125 36.39375Q102.28438 34.9875 102.28438 32.45625Q102.28438 29.83125 103.62813 28.39375Q104.97188 26.940624 107.12813 26.940624Q109.20625 26.940624 110.51875 28.3625Q111.84688 29.76875 111.84688 32.346874Q111.84688 32.503124 111.83125 32.815624L104.09688 32.815624Q104.19063 34.51875 105.06563 35.425Q105.94063 36.33125 107.2375 36.33125Q108.20625 36.33125 108.87813 35.83125Q109.56563 35.315624 109.97188 34.20625ZM104.19063 31.3625L109.9875 31.3625Q109.87813 30.065624 109.33125 29.409374Q108.4875 28.39375 107.14375 28.39375Q105.94063 28.39375 105.1125 29.20625Q104.28438 30.003124 104.19063 31.3625ZM113.84688 37.55L113.84688 27.175L115.425 27.175L115.425 28.753124Q116.03438 27.64375 116.55 27.3Q117.06563 26.940624 117.675 26.940624Q118.56563 26.940624 119.4875 27.503124L118.87813 29.14375Q118.2375 28.753124 117.59688 28.753124Q117.01875 28.753124 116.55 29.1125Q116.09688 29.45625 115.89375 30.065624Q115.6125 31.003124 115.6125 32.1125L115.6125 37.55L113.84688 37.55ZM120.15938 34.45625L121.90938 34.175Q122.05 35.221874 122.72188 35.784374Q123.39375 36.33125 124.59688 36.33125Q125.8 36.33125 126.37813 35.846874Q126.97188 35.346874 126.97188 34.690624Q126.97188 34.096874 126.45625 33.753124Q126.09688 33.51875 124.65938 33.159374Q122.72188 32.659374 121.97188 32.315624Q121.2375 31.95625 120.84688 31.33125Q120.45625 30.690624 120.45625 29.925Q120.45625 29.2375 120.76875 28.64375Q121.09688 28.05 121.64375 27.659374Q122.05 27.3625 122.75313 27.159374Q123.47188 26.940624 124.28438 26.940624Q125.50313 26.940624 126.425 27.3Q127.34688 27.64375 127.78438 28.253124Q128.22188 28.846874 128.39375 29.846874L126.675 30.08125Q126.55 29.284374 125.9875 28.846874Q125.425 28.39375 124.40938 28.39375Q123.19063 28.39375 122.675 28.8Q122.15938 29.190624 122.15938 29.721874Q122.15938 30.065624 122.37813 30.346874Q122.58125 30.628124 123.05 30.815624Q123.31563 30.909374 124.59688 31.253124Q126.47188 31.753124 127.20625 32.08125Q127.94063 32.39375 128.3625 33.003124Q128.78438 33.596874 128.78438 34.503124Q128.78438 35.378124 128.26875 36.159374Q127.75313 36.940624 126.78438 37.3625Q125.81563 37.784374 124.59688 37.784374Q122.58125 37.784374 121.51875 36.940624Q120.45625 36.096874 120.15938 34.45625ZM136.22188 32.3625Q136.22188 29.4875 137.81563 28.096874Q139.15938 26.940624 141.08125 26.940624Q143.22188 26.940624 144.56563 28.346874Q145.925 29.753124 145.925 32.221874Q145.925 34.221874 145.33125 35.378124Q144.7375 36.51875 143.58125 37.159374Q142.44063 37.784374 141.08125 37.784374Q138.89375 37.784374 137.55 36.39375Q136.22188 34.9875 136.22188 32.3625ZM138.01875 32.3625Q138.01875 34.3625 138.87813 35.346874Q139.75313 36.33125 141.08125 36.33125Q142.39375 36.33125 143.25313 35.346874Q144.12813 34.346874 144.12813 32.3Q144.12813 30.378124 143.25313 29.39375Q142.37813 28.39375 141.08125 28.39375Q139.75313 28.39375 138.87813 29.39375Q138.01875 30.378124 138.01875 32.3625ZM147.84688 37.55L147.84688 27.175L149.425 27.175L149.425 28.753124Q150.03438 27.64375 150.55 27.3Q151.06563 26.940624 151.675 26.940624Q152.56563 26.940624 153.4875 27.503124L152.87813 29.14375Q152.2375 28.753124 151.59688 28.753124Q151.01875 28.753124 150.55 29.1125Q150.09688 29.45625 149.89375 30.065624Q149.6125 31.003124 149.6125 32.1125L149.6125 37.55L147.84688 37.55ZM154.87813 25.253124L154.87813 23.2375L156.64375 23.2375L156.64375 25.253124L154.87813 25.253124ZM154.87813 37.55L154.87813 27.175L156.64375 27.175L156.64375 37.55L154.87813 37.55ZM158.55 38.409374L160.25313 38.659374Q160.3625 39.45625 160.84688 39.815624Q161.50313 40.3 162.64375 40.3Q163.8625 40.3 164.51875 39.815624Q165.19063 39.33125 165.425 38.45625Q165.56563 37.909374 165.55 36.190624Q164.39375 37.55 162.675 37.55Q160.53438 37.55 159.3625 36.003124Q158.19063 34.45625 158.19063 32.3Q158.19063 30.815624 158.72188 29.565624Q159.26875 28.315624 160.28438 27.628124Q161.31563 26.940624 162.69063 26.940624Q164.51875 26.940624 165.72188 28.425L165.72188 27.175L167.33125 27.175L167.33125 36.14375Q167.33125 38.565624 166.83125 39.565624Q166.34688 40.58125 165.26875 41.159374Q164.20625 41.753124 162.64375 41.753124Q160.8 41.753124 159.64375 40.925Q158.50313 40.096874 158.55 38.409374ZM160.00313 32.175Q160.00313 34.221874 160.81563 35.159374Q161.62813 36.096874 162.84688 36.096874Q164.05 36.096874 164.8625 35.159374Q165.69063 34.221874 165.69063 32.2375Q165.69063 30.33125 164.84688 29.3625Q164.00313 28.39375 162.81563 28.39375Q161.64375 28.39375 160.81563 29.346874Q160.00313 30.3 160.00313 32.175ZM169.87813 25.253124L169.87813 23.2375L171.64375 23.2375L171.64375 25.253124L169.87813 25.253124ZM169.87813 37.55L169.87813 27.175L171.64375 27.175L171.64375 37.55L169.87813 37.55ZM173.8625 37.55L173.8625 27.175L175.45625 27.175L175.45625 28.659374Q176.59688 26.940624 178.75313 26.940624Q179.69063 26.940624 180.47188 27.284374Q181.26875 27.6125 181.65938 28.159374Q182.05 28.70625 182.20625 29.45625Q182.3 29.95625 182.3 31.175L182.3 37.55L180.53438 37.55L180.53438 31.2375Q180.53438 30.159374 180.33125 29.628124Q180.12813 29.096874 179.59688 28.784374Q179.08125 28.471874 178.37813 28.471874Q177.25313 28.471874 176.44063 29.190624Q175.62813 29.89375 175.62813 31.878124L175.62813 37.55L173.8625 37.55ZM199.4875 23.2375L201.37813 23.2375L201.37813 31.503124Q201.37813 33.659374 200.89375 34.940624Q200.40938 36.20625 199.12813 37.003124Q197.8625 37.8 195.78438 37.8Q193.76875 37.8 192.4875 37.1125Q191.22188 36.409374 190.675 35.096874Q190.12813 33.784374 190.12813 31.503124L190.12813 23.2375L192.01875 23.2375L192.01875 31.4875Q192.01875 33.3625 192.3625 34.253124Q192.70625 35.128124 193.55 35.6125Q194.39375 36.08125 195.62813 36.08125Q197.70625 36.08125 198.59688 35.14375Q199.4875 34.190624 199.4875 31.4875L199.4875 23.2375ZM202.45625 32.95625L204.2375 32.8Q204.3625 33.8625 204.81563 34.55Q205.28438 35.2375 206.25313 35.675Q207.2375 36.096874 208.47188 36.096874Q209.55 36.096874 210.37813 35.784374Q211.20625 35.45625 211.6125 34.89375Q212.01875 34.33125 212.01875 33.659374Q212.01875 32.9875 211.62813 32.4875Q211.2375 31.9875 210.34688 31.64375Q209.76875 31.409374 207.78438 30.940624Q205.81563 30.471874 205.03438 30.05Q204.00313 29.51875 203.50313 28.721874Q203.00313 27.925 203.00313 26.940624Q203.00313 25.846874 203.6125 24.909374Q204.22188 23.971874 205.40938 23.4875Q206.59688 22.9875 208.03438 22.9875Q209.62813 22.9875 210.84688 23.503124Q212.06563 24.01875 212.70625 25.01875Q213.3625 26.003124 213.40938 27.26875L211.59688 27.409374Q211.45625 26.05 210.6125 25.3625Q209.76875 24.659374 208.1125 24.659374Q206.39375 24.659374 205.59688 25.3Q204.81563 25.925 204.81563 26.8Q204.81563 27.58125 205.37813 28.08125Q205.925 28.58125 208.2375 29.096874Q210.55 29.6125 211.40938 30.003124Q212.65938 30.58125 213.25313 31.471874Q213.84688 32.346874 213.84688 33.503124Q213.84688 34.64375 213.19063 35.659374Q212.53438 36.675 211.3 37.2375Q210.08125 37.8 208.55 37.8Q206.6125 37.8 205.3 37.2375Q203.9875 36.659374 203.2375 35.51875Q202.4875 34.378124 202.45625 32.95625ZM220.55 37.8L224.70625 22.9875L226.1125 22.9875L221.97188 37.8L220.55 37.8ZM233.84688 37.55L233.84688 27.175L235.425 27.175L235.425 28.753124Q236.03438 27.64375 236.55 27.3Q237.06563 26.940624 237.675 26.940624Q238.56563 26.940624 239.4875 27.503124L238.87813 29.14375Q238.2375 28.753124 237.59688 28.753124Q237.01875 28.753124 236.55 29.1125Q236.09688 29.45625 235.89375 30.065624Q235.6125 31.003124 235.6125 32.1125L235.6125 37.55L233.84688 37.55ZM247.97188 34.20625L249.78438 34.440624Q249.3625 36.01875 248.19063 36.909374Q247.03438 37.784374 245.22188 37.784374Q242.95625 37.784374 241.6125 36.39375Q240.28438 34.9875 240.28438 32.45625Q240.28438 29.83125 241.62813 28.39375Q242.97188 26.940624 245.12813 26.940624Q247.20625 26.940624 248.51875 28.3625Q249.84688 29.76875 249.84688 32.346874Q249.84688 32.503124 249.83125 32.815624L242.09688 32.815624Q242.19063 34.51875 243.06563 35.425Q243.94063 36.33125 245.2375 36.33125Q246.20625 36.33125 246.87813 35.83125Q247.56563 35.315624 247.97188 34.20625ZM242.19063 31.3625L247.9875 31.3625Q247.87813 30.065624 247.33125 29.409374Q246.4875 28.39375 245.14375 28.39375Q243.94063 28.39375 243.1125 29.20625Q242.28438 30.003124 242.19063 31.3625ZM251.15938 34.45625L252.90938 34.175Q253.05 35.221874 253.72188 35.784374Q254.39375 36.33125 255.59688 36.33125Q256.8 36.33125 257.3781 35.846874Q257.97186 35.346874 257.97186 34.690624Q257.97186 34.096874 257.45624 33.753124Q257.09686 33.51875 255.65938 33.159374Q253.72188 32.659374 252.97188 32.315624Q252.2375 31.95625 251.84688 31.33125Q251.45625 30.690624 251.45625 29.925Q251.45625 29.2375 251.76875 28.64375Q252.09688 28.05 252.64375 27.659374Q253.05 27.3625 253.75313 27.159374Q254.47188 26.940624 255.28438 26.940624Q256.5031 26.940624 257.425 27.3Q258.34686 27.64375 258.78436 28.253124Q259.22186 28.846874 259.39374 29.846874L257.675 30.08125Q257.55 29.284374 256.9875 28.846874Q256.425 28.39375 255.40938 28.39375Q254.19063 28.39375 253.675 28.8Q253.15938 29.190624 253.15938 29.721874Q253.15938 30.065624 253.37813 30.346874Q253.58125 30.628124 254.05 30.815624Q254.31563 30.909374 255.59688 31.253124Q257.47186 31.753124 258.20624 32.08125Q258.9406 32.39375 259.3625 33.003124Q259.78436 33.596874 259.78436 34.503124Q259.78436 35.378124 259.26874 36.159374Q258.7531 36.940624 257.78436 37.3625Q256.8156 37.784374 255.59688 37.784374Q253.58125 37.784374 252.51875 36.940624Q251.45625 36.096874 251.15938 34.45625ZM265.70624 35.971874L265.95624 37.534374Q265.22186 37.690624 264.6281 37.690624Q263.675 37.690624 263.14374 37.39375Q262.6281 37.08125 262.40936 36.596874Q262.1906 36.096874 262.1906 34.51875L262.1906 28.55L260.90936 28.55L260.90936 27.175L262.1906 27.175L262.1906 24.6125L263.9406 23.55L263.9406 27.175L265.70624 27.175L265.70624 28.55L263.9406 28.55L263.9406 34.6125Q263.9406 35.3625 264.03436 35.58125Q264.1281 35.784374 264.33124 35.925Q264.55 36.05 264.9406 36.05Q265.22186 36.05 265.70624 35.971874ZM274.97186 34.20625L276.78436 34.440624Q276.3625 36.01875 275.1906 36.909374Q274.03436 37.784374 272.22186 37.784374Q269.95624 37.784374 268.6125 36.39375Q267.28436 34.9875 267.28436 32.45625Q267.28436 29.83125 268.6281 28.39375Q269.97186 26.940624 272.1281 26.940624Q274.20624 26.940624 275.51874 28.3625Q276.84686 29.76875 276.84686 32.346874Q276.84686 32.503124 276.83124 32.815624L269.09686 32.815624Q269.1906 34.51875 270.0656 35.425Q270.9406 36.33125 272.2375 36.33125Q273.20624 36.33125 273.8781 35.83125Q274.5656 35.315624 274.97186 34.20625ZM269.1906 31.3625L274.9875 31.3625Q274.8781 30.065624 274.33124 29.409374Q273.4875 28.39375 272.14374 28.39375Q270.9406 28.39375 270.1125 29.20625Q269.28436 30.003124 269.1906 31.3625ZM291.59686 37.55L291.59686 36.2375Q290.6125 37.784374 288.6906 37.784374Q287.45624 37.784374 286.40936 37.096874Q285.3781 36.409374 284.8 35.190624Q284.2375 33.971874 284.2375 32.378124Q284.2375 30.815624 284.7531 29.55Q285.26874 28.284374 286.3 27.6125Q287.34686 26.940624 288.6125 26.940624Q289.55 26.940624 290.28436 27.346874Q291.01874 27.7375 291.4875 28.3625L291.4875 23.2375L293.22186 23.2375L293.22186 37.55L291.59686 37.55ZM286.03436 32.378124Q286.03436 34.3625 286.8781 35.346874Q287.72186 36.33125 288.8625 36.33125Q290.01874 36.33125 290.8156 35.39375Q291.6281 34.45625 291.6281 32.51875Q291.6281 30.39375 290.8 29.39375Q289.9875 28.39375 288.78436 28.39375Q287.6125 28.39375 286.8156 29.3625Q286.03436 30.315624 286.03436 32.378124ZM302.65936 37.55L302.65936 36.01875Q301.45624 37.784374 299.3781 37.784374Q298.45624 37.784374 297.65936 37.440624Q296.8625 37.08125 296.47186 36.55Q296.09686 36.01875 295.9406 35.2375Q295.83124 34.721874 295.83124 33.596874L295.83124 27.175L297.58124 27.175L297.58124 32.925Q297.58124 34.3 297.6906 34.784374Q297.8625 35.471874 298.39374 35.878124Q298.9406 36.26875 299.72186 36.26875Q300.51874 36.26875 301.20624 35.8625Q301.90936 35.45625 302.1906 34.76875Q302.4875 34.065624 302.4875 32.7375L302.4875 27.175L304.2375 27.175L304.2375 37.55L302.65936 37.55ZM311.8625 37.55L311.8625 27.175L313.4406 27.175L313.4406 28.628124Q313.925 27.878124 314.7375 27.409374Q315.55 26.940624 316.58124 26.940624Q317.7375 26.940624 318.47186 27.425Q319.20624 27.89375 319.51874 28.753124Q320.7531 26.940624 322.72186 26.940624Q324.26874 26.940624 325.09686 27.8Q325.925 28.659374 325.925 30.425L325.925 37.55L324.175 37.55L324.175 31.01875Q324.175 29.95625 324.0031 29.503124Q323.83124 29.034374 323.3781 28.753124Q322.9406 28.471874 322.33124 28.471874Q321.2375 28.471874 320.5031 29.20625Q319.78436 29.925 319.78436 31.51875L319.78436 37.55L318.03436 37.55L318.03436 30.815624Q318.03436 29.64375 317.59686 29.065624Q317.175 28.471874 316.1906 28.471874Q315.45624 28.471874 314.8156 28.8625Q314.1906 29.253124 313.90936 30.003124Q313.6281 30.753124 313.6281 32.175L313.6281 37.55L311.8625 37.55ZM327.22186 32.3625Q327.22186 29.4875 328.8156 28.096874Q330.15936 26.940624 332.08124 26.940624Q334.22186 26.940624 335.5656 28.346874Q336.925 29.753124 336.925 32.221874Q336.925 34.221874 336.33124 35.378124Q335.7375 36.51875 334.58124 37.159374Q333.4406 37.784374 332.08124 37.784374Q329.89374 37.784374 328.55 36.39375Q327.22186 34.9875 327.22186 32.3625ZM329.01874 32.3625Q329.01874 34.3625 329.8781 35.346874Q330.7531 36.33125 332.08124 36.33125Q333.39374 36.33125 334.2531 35.346874Q335.1281 34.346874 335.1281 32.3Q335.1281 30.378124 334.2531 29.39375Q333.3781 28.39375 332.08124 28.39375Q330.7531 28.39375 329.8781 29.39375Q329.01874 30.378124 329.01874 32.3625ZM338.8625 37.55L338.8625 27.175L340.45624 27.175L340.45624 28.659374Q341.59686 26.940624 343.7531 26.940624Q344.6906 26.940624 345.47186 27.284374Q346.26874 27.6125 346.65936 28.159374Q347.05 28.70625 347.20624 29.45625Q347.3 29.95625 347.3 31.175L347.3 37.55L345.53436 37.55L345.53436 31.2375Q345.53436 30.159374 345.33124 29.628124Q345.1281 29.096874 344.59686 28.784374Q344.08124 28.471874 343.3781 28.471874Q342.2531 28.471874 341.4406 29.190624Q340.6281 29.89375 340.6281 31.878124L340.6281 37.55L338.8625 37.55ZM355.59686 37.55L355.59686 36.2375Q354.6125 37.784374 352.6906 37.784374Q351.45624 37.784374 350.40936 37.096874Q349.3781 36.409374 348.8 35.190624Q348.2375 33.971874 348.2375 32.378124Q348.2375 30.815624 348.7531 29.55Q349.26874 28.284374 350.3 27.6125Q351.34686 26.940624 352.6125 26.940624Q353.55 26.940624 354.28436 27.346874Q355.01874 27.7375 355.4875 28.3625L355.4875 23.2375L357.22186 23.2375L357.22186 37.55L355.59686 37.55ZM350.03436 32.378124Q350.03436 34.3625 350.8781 35.346874Q351.72186 36.33125 352.8625 36.33125Q354.01874 36.33125 354.8156 35.39375Q355.6281 34.45625 355.6281 32.51875Q355.6281 30.39375 354.8 29.39375Q353.9875 28.39375 352.78436 28.39375Q351.6125 28.39375 350.8156 29.3625Q350.03436 30.315624 350.03436 32.378124ZM366.97186 34.20625L368.78436 34.440624Q368.3625 36.01875 367.1906 36.909374Q366.03436 37.784374 364.22186 37.784374Q361.95624 37.784374 360.6125 36.39375Q359.28436 34.9875 359.28436 32.45625Q359.28436 29.83125 360.6281 28.39375Q361.97186 26.940624 364.1281 26.940624Q366.20624 26.940624 367.51874 28.3625Q368.84686 29.76875 368.84686 32.346874Q368.84686 32.503124 368.83124 32.815624L361.09686 32.815624Q361.1906 34.51875 362.0656 35.425Q362.9406 36.33125 364.2375 36.33125Q365.20624 36.33125 365.8781 35.83125Q366.5656 35.315624 366.97186 34.20625ZM361.1906 31.3625L366.9875 31.3625Q366.8781 30.065624 366.33124 29.409374Q365.4875 28.39375 364.14374 28.39375Q362.9406 28.39375 362.1125 29.20625Q361.28436 30.003124 361.1906 31.3625ZM383.0031 37.55L381.2375 37.55L381.2375 26.346874Q380.6125 26.95625 379.58124 27.565624Q378.55 28.159374 377.72186 28.471874L377.72186 26.76875Q379.20624 26.08125 380.3 25.096874Q381.40936 24.096874 381.8625 23.175L383.0031 23.175L383.0031 37.55ZM387.64374 34.2375L389.33124 34.08125Q389.55 35.26875 390.14374 35.815624Q390.7531 36.346874 391.70624 36.346874Q392.51874 36.346874 393.1281 35.9875Q393.7375 35.6125 394.1281 34.9875Q394.51874 34.3625 394.78436 33.315624Q395.05 32.253124 395.05 31.159374Q395.05 31.05 395.03436 30.815624Q394.5031 31.64375 393.59686 32.175Q392.6906 32.690624 391.6125 32.690624Q389.84686 32.690624 388.6125 31.409374Q387.3781 30.1125 387.3781 28.003124Q387.3781 25.83125 388.65936 24.503124Q389.95624 23.175 391.8781 23.175Q393.28436 23.175 394.4406 23.925Q395.59686 24.675 396.1906 26.065624Q396.8 27.45625 396.8 30.096874Q396.8 32.846874 396.1906 34.471874Q395.59686 36.096874 394.425 36.95625Q393.2531 37.8 391.675 37.8Q389.9875 37.8 388.925 36.8625Q387.8625 35.925 387.64374 34.2375ZM394.84686 27.925Q394.84686 26.409374 394.03436 25.51875Q393.2375 24.628124 392.09686 24.628124Q390.925 24.628124 390.05 25.596874Q389.1906 26.55 389.1906 28.065624Q389.1906 29.440624 390.0031 30.3Q390.83124 31.14375 392.05 31.14375Q393.26874 31.14375 394.05 30.3Q394.84686 29.440624 394.84686 27.925ZM398.39374 33.76875L400.14374 33.534374Q400.45624 35.034374 401.175 35.690624Q401.90936 36.346874 402.95624 36.346874Q404.1906 36.346874 405.03436 35.4875Q405.89374 34.628124 405.89374 33.3625Q405.89374 32.14375 405.09686 31.3625Q404.3156 30.58125 403.09686 30.58125Q402.59686 30.58125 401.8625 30.76875L402.05 29.221874Q402.22186 29.253124 402.33124 29.253124Q403.45624 29.253124 404.34686 28.675Q405.2531 28.08125 405.2531 26.8625Q405.2531 25.89375 404.59686 25.253124Q403.9406 24.6125 402.90936 24.6125Q401.89374 24.6125 401.20624 25.26875Q400.51874 25.909374 400.33124 27.190624L398.5656 26.878124Q398.89374 25.1125 400.03436 24.14375Q401.175 23.175 402.8781 23.175Q404.05 23.175 405.03436 23.675Q406.01874 24.175 406.53436 25.05Q407.0656 25.925 407.0656 26.89375Q407.0656 27.815624 406.5656 28.58125Q406.0656 29.346874 405.09686 29.8Q406.3625 30.08125 407.0656 31.01875Q407.76874 31.940624 407.76874 33.315624Q407.76874 35.190624 406.39374 36.503124Q405.03436 37.8 402.9406 37.8Q401.05 37.8 399.8 36.675Q398.5656 35.55 398.39374 33.76875ZM415.01874 37.55L415.01874 34.128124L408.8 34.128124L408.8 32.503124L415.33124 23.2375L416.76874 23.2375L416.76874 32.503124L418.70624 32.503124L418.70624 34.128124L416.76874 34.128124L416.76874 37.55L415.01874 37.55ZM415.01874 32.503124L415.01874 26.05L410.53436 32.503124L415.01874 32.503124ZM420.1906 33.253124L420.1906 31.4875L425.58124 31.4875L425.58124 33.253124L420.1906 33.253124ZM436.6125 35.8625L436.6125 37.55L427.15936 37.55Q427.14374 36.909374 427.3625 36.33125Q427.72186 35.3625 428.51874 34.425Q429.3156 33.4875 430.8156 32.253124Q433.15936 30.346874 433.97186 29.2375Q434.8 28.1125 434.8 27.1125Q434.8 26.065624 434.05 25.346874Q433.3 24.628124 432.09686 24.628124Q430.83124 24.628124 430.0656 25.39375Q429.3 26.159374 429.3 27.503124L427.4875 27.315624Q427.675 25.3 428.8781 24.2375Q430.09686 23.175 432.14374 23.175Q434.1906 23.175 435.39374 24.315624Q436.59686 25.45625 436.59686 27.14375Q436.59686 28.003124 436.2375 28.846874Q435.89374 29.675 435.08124 30.596874Q434.26874 31.503124 432.3781 33.1125Q430.78436 34.440624 430.33124 34.909374Q429.89374 35.378124 429.59686 35.8625L436.6125 35.8625ZM438.3781 30.4875Q438.3781 27.95625 438.89374 26.409374Q439.425 24.846874 440.45624 24.01875Q441.4875 23.175 443.05 23.175Q444.20624 23.175 445.0656 23.64375Q445.9406 24.096874 446.5031 24.971874Q447.0656 25.846874 447.39374 27.1125Q447.72186 28.3625 447.72186 30.4875Q447.72186 33.003124 447.1906 34.55Q446.675 36.096874 445.64374 36.95625Q444.6281 37.8 443.05 37.8Q440.97186 37.8 439.8 36.315624Q438.3781 34.51875 438.3781 30.4875ZM440.1906 30.4875Q440.1906 34.01875 441.0031 35.190624Q441.83124 36.346874 443.05 36.346874Q444.2531 36.346874 445.08124 35.175Q445.90936 34.003124 445.90936 30.4875Q445.90936 26.95625 445.08124 25.8Q444.2531 24.628124 443.03436 24.628124Q441.8156 24.628124 441.09686 25.659374Q440.1906 26.95625 440.1906 30.4875ZM458.6125 35.8625L458.6125 37.55L449.15936 37.55Q449.14374 36.909374 449.3625 36.33125Q449.72186 35.3625 450.51874 34.425Q451.3156 33.4875 452.8156 32.253124Q455.15936 30.346874 455.97186 29.2375Q456.8 28.1125 456.8 27.1125Q456.8 26.065624 456.05 25.346874Q455.3 24.628124 454.09686 24.628124Q452.83124 24.628124 452.0656 25.39375Q451.3 26.159374 451.3 27.503124L449.4875 27.315624Q449.675 25.3 450.8781 24.2375Q452.09686 23.175 454.14374 23.175Q456.1906 23.175 457.39374 24.315624Q458.59686 25.45625 458.59686 27.14375Q458.59686 28.003124 458.2375 28.846874Q457.89374 29.675 457.08124 30.596874Q456.26874 31.503124 454.3781 33.1125Q452.78436 34.440624 452.33124 34.909374Q451.89374 35.378124 451.59686 35.8625L458.6125 35.8625ZM460.3781 30.4875Q460.3781 27.95625 460.89374 26.409374Q461.425 24.846874 462.45624 24.01875Q463.4875 23.175 465.05 23.175Q466.20624 23.175 467.0656 23.64375Q467.9406 24.096874 468.5031 24.971874Q469.0656 25.846874 469.39374 27.1125Q469.72186 28.3625 469.72186 30.4875Q469.72186 33.003124 469.1906 34.55Q468.675 36.096874 467.64374 36.95625Q466.6281 37.8 465.05 37.8Q462.97186 37.8 461.8 36.315624Q460.3781 34.51875 460.3781 30.4875ZM462.1906 30.4875Q462.1906 34.01875 463.0031 35.190624Q463.83124 36.346874 465.05 36.346874Q466.2531 36.346874 467.08124 35.175Q467.90936 34.003124 467.90936 30.4875Q467.90936 26.95625 467.08124 25.8Q466.2531 24.628124 465.03436 24.628124Q463.8156 24.628124 463.09686 25.659374Q462.1906 26.95625 462.1906 30.4875Z" fill-rule="nonzero"/></svg>